<svg width="371" height="96" viewBox="0 0 371 96" fill="none" xmlns="http://www.w3.org/2000/svg">
<path d="M109.72 26.9198C108.643 25.788 107.167 25.1201 105.606 25.0577C104.044 24.9953 102.52 25.5433 101.356 26.5854C100.958 26.933 91.5772 35.4737 83.6835 48.5793C80.0409 54.6899 76.8267 61.0456 74.064 67.6006C71.7288 64.7413 69.339 61.9269 66.8958 59.1592C64.5466 56.4546 62.089 53.8461 59.5288 51.3402C66.3823 44.2097 71.0861 34.1496 71.7254 25.0097C72.3249 16.4955 70.4865 10.133 66.0975 5.56804C61.3937 0.668725 54.5103 -1.19831 48.5246 0.81107C39.1171 3.96252 31.5514 16.3829 30.127 31.008C29.9439 32.9617 29.84 34.9219 29.8156 36.8839C17.2149 35.573 4.6307 40.7371 1.03995 48.7018C-1.17943 53.6574 0.228386 58.9473 4.83276 62.8536C10.3481 67.5443 19.6959 68.6731 31.1406 66.0083C31.5083 65.909 31.8959 65.8262 32.2801 65.7302C33.5621 73.9631 34.8606 80.0177 35.0295 80.7592C35.7152 83.8842 38.8621 85.8803 42.0553 85.2249C42.8131 85.0742 43.5334 84.7745 44.1743 84.3431C44.8152 83.9118 45.3639 83.3574 45.7885 82.7123C46.2135 82.0772 46.5047 81.3622 46.6442 80.6109C46.7837 79.8597 46.7687 79.0879 46.6001 78.3427C45.457 72.8723 44.4838 67.3679 43.6818 61.8373C45.8849 60.8745 48.0345 59.7937 50.1213 58.5998C52.8574 61.1256 55.4643 63.9989 57.9189 66.7763C66.4983 76.4889 70.8708 82.7554 70.9138 82.8249L77.7839 92.7327L81.4608 81.3021C81.5039 81.1763 85.8333 67.8522 93.8728 54.5082C100.769 43.0378 109.037 35.4605 109.365 35.1526C109.936 34.6438 110.399 34.0256 110.727 33.3345C111.054 32.6435 111.239 31.8938 111.271 31.1299C111.303 30.366 111.181 29.6035 110.912 28.8876C110.643 28.1718 110.233 27.5172 109.707 26.9628L109.72 26.9198ZM12.6701 54.677C12.3249 54.3079 12.0918 53.8484 11.998 53.3519C11.9041 52.8555 11.9534 52.3426 12.1401 51.8731C12.7828 50.4199 16.93 48.245 25.781 48.245C27.2704 48.2428 28.7573 48.3646 30.2264 48.6091C30.3688 50.4067 30.5245 52.2902 30.7398 54.2169C21.1667 56.8254 14.4655 56.4778 12.6701 54.6902V54.677ZM50.3333 43.9316C47.6014 42.1717 44.6872 40.7121 41.6413 39.5785C41.5944 37.0772 41.6851 34.5753 41.9129 32.0839C42.9828 21.1002 47.6998 13.4798 51.6185 11.8776C51.6616 11.8643 55.8784 10.3846 58.6013 13.2315C61.4831 16.2174 61.1254 20.4745 60.496 23.8378C59.3471 29.8106 56.9112 35.4619 53.3576 40.3995C52.4168 41.7005 51.4032 42.8822 50.3498 43.9316H50.3366H50.3333Z" fill="#4A2983"/>
<g style="mix-blend-mode:multiply">
<mask id="mask0_32_85" style="mask-type:luminance" maskUnits="userSpaceOnUse" x="30" y="48" width="21" height="14">
<g style="mix-blend-mode:multiply">
<path d="M30.2266 48.6058C30.2266 48.6058 40.6742 49.0362 50.1214 58.5567L48.2996 59.5598L46.9878 60.245L45.6032 60.9137L43.6819 61.7942C43.6819 61.7942 39.0511 56.448 30.74 54.2136L30.2266 48.6058Z" fill="white"/>
</g>
</mask>
<g mask="url(#mask0_32_85)">
<path d="M30.2266 51.787L49.9227 61.0228L49.5517 61.7942H30.2266V51.787Z" fill="white"/>
<path d="M30.2266 51.7605L49.9359 60.9964L49.9227 61.0262L30.2266 51.7903V51.7605Z" fill="white"/>
<path d="M30.2266 51.7175L49.9525 60.9699L49.9359 60.9964L30.2266 51.7606V51.7175Z" fill="white"/>
<path d="M30.2266 51.691L49.9657 60.9435L49.9525 60.9699L30.2266 51.7175V51.691Z" fill="#FEFEFF"/>
<path d="M30.2266 51.6479L49.979 60.9169L49.9657 60.9434L30.2266 51.691V51.6479Z" fill="#FDFDFE"/>
<path d="M30.2266 51.6215L49.9923 60.8871L49.979 60.9136L30.2266 51.6446V51.6215Z" fill="#FCFDFE"/>
<path d="M30.2266 51.5752L50.0088 60.8574L49.9922 60.8872L30.2266 51.6182V51.5785V51.5752Z" fill="#FBFCFD"/>
<path d="M30.2266 51.5487L50.0221 60.8309L50.0088 60.8574L30.2266 51.5785V51.5487Z" fill="#FAFBFC"/>
<path d="M30.2266 51.509L50.0353 60.8012L50.0221 60.831L30.2266 51.5488V51.509Z" fill="#F9FAFC"/>
<path d="M30.2266 51.4791L50.0519 60.7746L50.0353 60.8011L30.2266 51.5089V51.4791Z" fill="#F8F9FB"/>
<path d="M30.2266 51.4395L50.0651 60.7481L50.0519 60.7746L30.2266 51.4792V51.4395Z" fill="#F7F8FB"/>
<path d="M30.2266 51.4097L50.0784 60.7184L50.0651 60.7482L30.2266 51.4395V51.4097Z" fill="#F5F8FA"/>
<path d="M30.2266 51.3832L50.0949 60.6919L50.0784 60.7183L30.2266 51.4097V51.3832Z" fill="#F4F6F8"/>
<path d="M30.2266 51.3434L50.1082 60.662L50.0949 60.6918L30.2266 51.3831V51.3401V51.3434Z" fill="#F3F5F8"/>
<path d="M30.2266 51.3103L50.1082 60.6355V60.662L30.2266 51.3434V51.3169V51.3103Z" fill="#F2F4F7"/>
<path d="M30.2266 51.2706L50.1082 60.5926V60.6356L30.2266 51.3104V51.2706Z" fill="#F1F3F7"/>
<path d="M30.2266 51.2441L50.1082 60.5661V60.5926L30.2266 51.2706V51.2441Z" fill="#F0F2F6"/>
<path d="M30.2266 51.201L50.1082 60.523V60.566L30.2266 51.2441V51.201Z" fill="#EFF2F5"/>
<path d="M30.2266 51.1747L50.1082 60.4966V60.5231L30.2266 51.2012V51.1747Z" fill="#EEF1F5"/>
<path d="M30.2266 51.1316L50.1082 60.4535V60.4966L30.2266 51.1746V51.1316Z" fill="#EDF0F4"/>
<path d="M30.2266 51.1051L50.1082 60.4237V60.4535L30.2266 51.1316V51.1051Z" fill="#ECEFF4"/>
<path d="M30.2266 51.0621L50.1082 60.3841V60.4238L30.2266 51.1019V51.0621Z" fill="#EBEEF3"/>
<path d="M30.2266 51.0322L50.1082 60.3575V60.3839L30.2266 51.062V51.0322Z" fill="#EAEDF4"/>
<path d="M30.2266 50.9926L50.1082 60.3277V60.3575L30.2266 51.0323V50.9926Z" fill="#E9EDF3"/>
<path d="M30.2266 50.9628L50.1082 60.2847V60.3277L30.2266 50.9926V50.9628Z" fill="#E8ECF1"/>
<path d="M30.2266 50.9231L50.1082 60.2583V60.2848L30.2266 50.9628V50.9231Z" fill="#E8EBF2"/>
<path d="M30.2266 50.8932L50.1082 60.2151V60.2582L30.2266 50.923V50.8932Z" fill="#E6EAF0"/>
<path d="M30.2266 50.8535L50.1082 60.1887V60.2152L30.2266 50.8932V50.8535Z" fill="#E5E9F1"/>
<path d="M30.2266 50.8237L50.1082 60.1457V60.1887L30.2266 50.8535V50.8237Z" fill="#E4E8F0"/>
<path d="M30.2266 50.7972L50.1082 60.1192V60.1457L30.2266 50.8237V50.7972Z" fill="#E4E8EF"/>
<path d="M30.2266 50.7543L50.1082 60.0762V60.1192L30.2266 50.7973V50.7543Z" fill="#E3E7EF"/>
<path d="M30.2266 50.7278L50.1082 60.0497V60.0762L30.2266 50.7543V50.7278Z" fill="#E1E6ED"/>
<path d="M30.2266 50.6847L50.1082 60.0066V60.0497L30.2266 50.7277V50.6847Z" fill="#E0E5ED"/>
<path d="M30.2266 50.6582L50.1082 59.9801V60.0066L30.2266 50.6847V50.6582Z" fill="#DEE4EC"/>
<path d="M30.2266 50.6152L50.1082 59.9372V59.9802L30.2266 50.6583V50.6152Z" fill="#DEE3EB"/>
<path d="M30.2266 50.5853L50.1082 59.9106V59.9371L30.2266 50.6151V50.5853Z" fill="#DDE3EB"/>
<path d="M30.2266 50.5457L50.1082 59.8676V59.9106L30.2266 50.5887V50.5457Z" fill="#DCE2EA"/>
<path d="M30.2266 50.5159L50.1082 59.8378V59.8676L30.2266 50.5457V50.5159Z" fill="#DBE1EA"/>
<path d="M30.2266 50.4762L50.1082 59.7981V59.8379L30.2266 50.5159V50.4762Z" fill="#DAE0E9"/>
<path d="M30.2266 50.4497L50.1082 59.7683V59.7981L30.2266 50.4762V50.4497Z" fill="#D9DFE8"/>
<path d="M30.2266 50.4066L50.1082 59.7418V59.7683L30.2266 50.4496V50.4066Z" fill="#D8DEE8"/>
<path d="M30.2266 50.3768L50.1082 59.6988V59.7418L30.2266 50.4066V50.3768Z" fill="#D7DDE7"/>
<path d="M30.2266 50.3372L50.1082 59.6723V59.6988L30.2266 50.3769V50.3372Z" fill="#D6DCE6"/>
<path d="M30.2266 50.3074L50.1082 59.6293V59.6723L30.2266 50.3372V50.3074Z" fill="#D6DCE6"/>
<path d="M30.2266 50.2809L50.1082 59.6028V59.6293L30.2266 50.3074V50.2809Z" fill="#D4DBE5"/>
<path d="M30.2266 50.2378L50.1082 59.5597V59.6028L30.2266 50.2808V50.2378Z" fill="#D4DAE5"/>
<path d="M30.2266 50.2113L50.1082 59.5332V59.5597L30.2266 50.2378V50.2113Z" fill="#D2D9E4"/>
<path d="M30.2266 50.1683L50.1082 59.4903V59.5333L30.2266 50.2114V50.1683Z" fill="#D1D9E5"/>
<path d="M30.2266 50.1418L50.1082 59.4638V59.4903L30.2266 50.1683V50.1418Z" fill="#D1D8E3"/>
<path d="M30.2266 50.0988L50.1082 59.4207V59.4637L30.2266 50.1418V50.0988Z" fill="#D0D7E2"/>
<path d="M30.2266 50.0723L50.1082 59.3942V59.4207L30.2266 50.0987V50.0723Z" fill="#CFD6E2"/>
<path d="M30.2266 50.0293L50.1082 59.3512V59.3943L30.2266 50.0723V50.0293Z" fill="#CDD5E1"/>
<path d="M30.2266 49.9995L50.1082 59.3248V59.3512L30.2266 50.0293V49.9995Z" fill="#CCD4E1"/>
<path d="M30.2266 49.9597L50.1082 59.2817V59.3214L30.2266 49.9994V49.9597Z" fill="#CCD4E0"/>
<path d="M30.2266 49.9299L50.1082 59.2519V59.2817L30.2266 49.9597V49.9299Z" fill="#CAD3DE"/>
<path d="M30.2266 49.8868L50.1082 59.2121V59.2518L30.2266 49.9299V49.8902V49.8868Z" fill="#C9D2DF"/>
<path d="M30.2266 49.8604L50.1082 59.1823V59.2121L30.2266 49.8868V49.8571V49.8604Z" fill="#C8D1DE"/>
<path d="M30.2266 49.8207L50.1082 59.1559V59.1823L30.2266 49.8604V49.8207Z" fill="#C7D0DE"/>
<path d="M30.2266 49.7909L50.1082 59.1128V59.1559L30.2266 49.8207V49.7909Z" fill="#C7CFDD"/>
<path d="M30.2266 49.7512L50.1082 59.0864V59.1129L30.2266 49.7909V49.7512Z" fill="#C5CFDC"/>
<path d="M30.2266 49.7214L50.1082 59.0434V59.0864L30.2266 49.7512V49.7214Z" fill="#C5CEDC"/>
<path d="M30.2266 49.6949L50.1082 59.0169V59.0434L30.2266 49.7214V49.6949Z" fill="#C4CDDB"/>
<path d="M30.2266 49.6552L50.1082 58.9738V59.0168L30.2266 49.6949V49.6519V49.6552Z" fill="#C3CCDB"/>
<path d="M30.2266 49.6221L50.1082 58.9473V58.9738L30.2266 49.6552V49.6287V49.6221Z" fill="#C2CCDA"/>
<path d="M30.2266 49.5824L50.1082 58.9043V58.9474L30.2266 49.6221V49.5824Z" fill="#C0CBDA"/>
<path d="M30.2266 49.5559L50.1082 58.8778V58.9043L30.2266 49.5824V49.5559Z" fill="#C0CAD9"/>
<path d="M30.2266 49.5128L50.1082 58.8348V58.8778L30.2266 49.5559V49.5128Z" fill="#BFCAD9"/>
<path d="M30.2266 49.483L50.1082 58.8083V58.8348L30.2266 49.5128V49.483Z" fill="#BEC9D9"/>
<path d="M30.2266 49.4434L50.1082 58.7653V58.8083L30.2266 49.4831V49.4434Z" fill="#BCC7D7"/>
<path d="M30.2266 49.4135L50.1082 58.7387V58.7652L30.2266 49.4433V49.4135ZM30.2266 49.3738L50.1082 58.6957V58.7387L30.2266 49.4135V49.3738Z" fill="#BCC7D7"/>
<path d="M30.2266 49.344L50.1082 58.6659V58.6957L30.2266 49.3738V49.344Z" fill="#BAC5D5"/>
<path d="M30.2266 49.3043L50.1082 58.6262V58.666L30.2266 49.344V49.3043Z" fill="#B9C4D6"/>
<path d="M30.2266 49.2745L50.1082 58.5965V58.6263L30.2266 49.3043V49.2745Z" fill="#B8C4D5"/>
<path d="M30.2266 49.2347L50.1082 58.5699V58.5964L30.2266 49.2745V49.2347Z" fill="#B7C3D5"/>
<path d="M30.2266 49.205L50.1082 58.5269V58.5699L30.2266 49.2347V49.205Z" fill="#B6C1D3"/>
<path d="M30.2266 49.1653L50.1082 58.5005V58.5269L30.2266 49.205V49.1653Z" fill="#B4C0D2"/>
<path d="M30.2266 49.1355L50.1082 58.4574V58.5005L30.2266 49.1653V49.1355Z" fill="#B3C0D2"/>
<path d="M30.2266 49.109L50.1082 58.4309V58.4574L30.2266 49.1355V49.109Z" fill="#B2BFD1"/>
<path d="M30.2266 49.0659L50.1082 58.3879V58.4309L30.2266 49.109V49.0659Z" fill="#B1BED1"/>
<path d="M30.2266 49.0394L50.1082 58.3614V58.3878L30.2266 49.0659V49.0394Z" fill="#B0BDD0"/>
<path d="M30.2266 48.9965L50.1082 58.3184V58.3614L30.2266 49.0395V48.9965Z" fill="#AFBCCF"/>
<path d="M30.2266 48.97L50.1082 58.2919V58.3184L30.2266 48.9965V48.97Z" fill="#AEBBCE"/>
<path d="M30.2266 48.9269L50.1082 58.2488V58.2885L30.2266 48.9666V48.9269Z" fill="#ADBBCE"/>
<path d="M30.2266 48.8971L50.1082 58.219V58.2488L30.2266 48.9269V48.9004V48.8971Z" fill="#ACBACE"/>
<path d="M30.2266 48.8574L50.1082 58.1794V58.2191L30.2266 48.8971V48.8574Z" fill="#ABB9CD"/>
<path d="M30.2266 48.8276L50.1082 58.1496V58.1794L30.2266 48.8574V48.8276Z" fill="#AAB8CC"/>
<path d="M30.2266 48.7878L50.1082 58.1098V58.1495L30.2266 48.8276V48.7878Z" fill="#A9B7CC"/>
<path d="M30.2266 48.7614L50.1082 58.08V58.1098L30.2266 48.7878V48.7614Z" fill="#A9B6CB"/>
<path d="M30.2266 48.7184L50.1082 58.0536V58.08L30.2266 48.7614V48.7217V48.7184Z" fill="#A8B7CB"/>
<path d="M30.2266 48.6886L50.1082 58.0105V58.0536L30.2266 48.7184V48.6886Z" fill="#A7B6CA"/>
<path d="M30.2266 48.6488L50.1082 57.984V58.0138L30.2266 48.6918V48.6488Z" fill="#A5B4C9"/>
<path d="M30.2266 48.619L50.1082 57.9409V57.984L30.2266 48.6488V48.619Z" fill="#A4B3C9"/>
<path d="M30.2696 48.6058L50.1082 57.9145V57.941L30.2266 48.6191V48.6058H30.2696Z" fill="#A4B2C8"/>
<path d="M30.3523 48.6058L50.1048 57.8748V57.9145L30.2695 48.6058H30.3523Z" fill="#A3B2C8"/>
<path d="M30.4255 48.6058L50.1051 57.8417V57.8748L30.356 48.6058H30.4255Z" fill="#A2B2C7"/>
<path d="M30.4982 48.6058L50.1082 57.802V57.845L30.4253 48.6058H30.4982Z" fill="#A1B1C7"/>
<path d="M30.5676 48.6058L50.108 57.7755V57.802L30.498 48.6058H30.5676Z" fill="#A0B0C6"/>
<path d="M30.6407 48.6058L50.105 57.7325V57.7755L30.5679 48.6058H30.6374H30.6407Z" fill="#9EAEC4"/>
<path d="M30.7102 48.6058L50.1049 57.7027V57.7325L30.6406 48.6058H30.7102Z" fill="#9DADC5"/>
<path d="M30.7965 48.6058L50.1083 57.6629V57.7027L30.707 48.6058H30.7932H30.7965Z" fill="#9CABC3"/>
<path d="M30.8693 48.6058L50.1083 57.6331V57.6629L30.7964 48.6058H30.8693Z" fill="#9BACC3"/>
<path d="M30.9386 48.6058L50.108 57.5934V57.6331L30.8657 48.6058H30.9386Z" fill="#99ABC3"/>
<path d="M31.0118 48.6058L50.1084 57.5636V57.5934L30.939 48.6058H31.0118Z" fill="#98AAC2"/>
<path d="M31.0812 48.6058L50.1049 57.5239V57.5636L31.0083 48.6058H31.0812Z" fill="#97A9C2"/>
<path d="M31.1539 48.6058L50.1081 57.4941V57.5239L31.0811 48.6058H31.1539Z" fill="#97A8C1"/>
<path d="M31.2238 48.6058L50.105 57.4676V57.4941L31.1509 48.6058H31.2238Z" fill="#96A7C1"/>
<path d="M31.3099 48.6058L50.1083 57.4246V57.4676L31.2271 48.6058H31.3099Z" fill="#95A6C0"/>
<path d="M31.3791 48.6058L50.1047 57.3981V57.4246L31.3096 48.6058H31.3791Z" fill="#94A6BF"/>
<path d="M31.4523 48.6058L50.1083 57.3551V57.3981L31.3794 48.6058H31.4523Z" fill="#93A5BF"/>
<path d="M31.525 48.6058L50.1081 57.3286V57.3551L31.4521 48.6058H31.525Z" fill="#92A4BE"/>
<path d="M31.5945 48.6058L50.108 57.2856V57.3286L31.5249 48.6058H31.5945Z" fill="#91A4BF"/>
<path d="M31.6676 48.6058L50.1083 57.2591V57.2856L31.5947 48.6058H31.6676Z" fill="#90A2BD"/>
<path d="M31.7503 48.6058L50.1049 57.2127V57.2591L31.6675 48.6058H31.7536H31.7503Z" fill="#8FA1BC"/>
<path d="M31.8234 48.6058L50.1084 57.1896V57.216L31.7505 48.6058H31.8234Z" fill="#8EA2BD"/>
<path d="M31.8927 48.6058L50.1048 57.1465V57.1862L31.8198 48.6058H31.8927Z" fill="#8DA0BB"/>
<path d="M31.9655 48.6058L50.108 57.1167V57.1465L31.8926 48.6058H31.9655Z" fill="#8C9FBC"/>
<path d="M32.0354 48.6058L50.1084 57.077V57.1167L31.9658 48.6058H32.0354Z" fill="#8B9EBB"/>
<path d="M32.1081 48.6058L50.1083 57.0472V57.077L32.0386 48.6025L32.1081 48.6058Z" fill="#8A9DBA"/>
<path d="M32.194 48.6058L50.1047 57.0075V57.0472L32.1079 48.6058H32.194Z" fill="#899DBA"/>
<path d="M32.2638 48.6058L50.1049 56.981V57.0075L32.1909 48.6058H32.2638Z" fill="#889DB9"/>
<path d="M32.3332 48.6058L50.1048 56.938V56.9777L32.2637 48.6025L32.3332 48.6058Z" fill="#879CB9"/>
<path d="M32.406 48.6058L50.108 56.9082V56.938L32.3364 48.6058H32.406Z" fill="#869BB9"/>
<path d="M32.4791 48.6058L50.1082 56.8817V56.9082L32.4062 48.6058H32.4791Z" fill="#859AB7"/>
<path d="M32.5486 48.6058L50.1048 56.8387V56.8817L32.479 48.6058H32.5486Z" fill="#8599B7"/>
<path d="M32.6217 48.6058L50.1051 56.8122V56.8387L32.5488 48.6058H32.6217Z" fill="#8398B6"/>
<path d="M32.7043 48.6058L50.1082 56.7692V56.8122L32.6182 48.6025L32.7043 48.6058Z" fill="#8298B6"/>
<path d="M32.777 48.6058L50.1047 56.7427V56.7691L32.7041 48.6058H32.777Z" fill="#8196B4"/>
<path d="M32.8469 48.6058L50.105 56.6996V56.7427L32.7773 48.6058H32.8469Z" fill="#7F95B3"/>
<path d="M32.9197 48.6058L50.1082 56.6698V56.6996L32.8501 48.6058H32.9197Z" fill="#7E94B3"/>
<path d="M32.9923 48.6058L50.108 56.6301V56.6698L32.9194 48.6058H32.9923Z" fill="#7E93B2"/>
<path d="M33.0622 48.6058L50.1084 56.6036V56.6301L32.9927 48.6058H33.0622Z" fill="#7E93B2"/>
<path d="M33.1482 48.6058L50.1082 56.5606V56.6036L33.0654 48.6058H33.1482Z" fill="#7C92B1"/>
<path d="M33.2179 48.6058L50.105 56.5308V56.5606L33.145 48.6058H33.2179Z" fill="#7B91B0"/>
<path d="M33.2906 48.6058L50.1049 56.4911V56.5308L33.2178 48.6058H33.2906Z" fill="#7A90B0"/>
<path d="M33.3601 48.6058L50.1081 56.4613V56.4911L33.2905 48.6058H33.3601Z" fill="#798FAF"/>
<path d="M33.4332 48.6058L50.1084 56.4182V56.4613L33.3604 48.6058H33.4332Z" fill="#788FAF"/>
<path d="M33.5027 48.6058L50.1049 56.3918V56.4216L33.4331 48.6058H33.5027Z" fill="#778EAE"/>
<path d="M33.5753 48.6058L50.1047 56.352V56.3918L33.5024 48.6058H33.5753Z" fill="#768DAD"/>
<path d="M33.6618 48.6058L50.1051 56.3223V56.352L33.5757 48.6058H33.6618Z" fill="#758DAE"/>
<path d="M33.7345 48.6058L50.1082 56.2958V56.3223L33.6616 48.6058H33.7345Z" fill="#748CAD"/>
<path d="M33.8038 48.6058L50.1046 56.2527V56.2958L33.731 48.6058H33.8038Z" fill="#738AAD"/>
<path d="M33.8738 48.6058L50.105 56.2263V56.2527L33.8042 48.6058H33.8738Z" fill="#7189AC"/>
<path d="M33.9465 48.6058L50.1082 56.1832V56.2263L33.877 48.6058H33.9465Z" fill="#7088AC"/>
<path d="M34.0192 48.6058L50.1047 56.1534V56.1832L33.9463 48.6025H34.0159L34.0192 48.6058Z" fill="#7089AA"/>
<path d="M34.1023 48.6058L50.1083 56.1137V56.1567L34.0195 48.6058H34.1023Z" fill="#6F88AA"/>
<path d="M34.1749 48.6058L50.108 56.0872V56.1137L34.1021 48.6058H34.1749Z" fill="#6F87AA"/>
<path d="M34.2448 48.6058L50.105 56.0442V56.0839L34.1719 48.6025L34.2448 48.6058Z" fill="#6C85A8"/>
<path d="M34.3175 48.6058L50.1082 56.0144V56.0442L34.2446 48.6058H34.3175Z" fill="#6C85A9"/>
<path d="M34.3869 48.6058L50.1081 55.9747V56.0144L34.3174 48.6058H34.3869Z" fill="#6A84A7"/>
<path d="M34.4568 48.6058L50.105 55.9449V55.9747L34.3872 48.6058H34.4568Z" fill="#6A84A7"/>
<path d="M34.5427 48.6058L50.1048 55.9051V55.9449L34.4565 48.6058H34.5427Z" fill="#6A83A6"/>
<path d="M34.6155 48.6058L50.108 55.8754V55.9051L34.5459 48.6058H34.6155Z" fill="#6882A5"/>
<path d="M34.6886 48.6058L50.1083 55.8356V55.8754L34.6157 48.6058H34.6886Z" fill="#6781A6"/>
<path d="M34.7579 48.6058L50.1047 55.8058V55.8356L34.6851 48.6058H34.7579Z" fill="#6680A5"/>
<path d="M34.8312 48.6058L50.1084 55.7661V55.8058L34.7583 48.6058H34.8312Z" fill="#657EA3"/>
<path d="M34.9005 48.6058L50.1049 55.7363V55.7661L34.8276 48.6058H34.9005Z" fill="#647FA4"/>
<path d="M34.9734 48.6058L50.1082 55.7098V55.7363L34.9038 48.6058H34.9734Z" fill="#637EA3"/>
<path d="M35.0563 48.6058L50.105 55.6668V55.7098L34.9702 48.6058H35.0563Z" fill="#637DA2"/>
<path d="M35.1291 48.6058L50.1083 55.6403V55.6668L35.0596 48.6058H35.1291Z" fill="#627CA2"/>
<path d="M35.1985 48.6058L50.1047 55.5973V55.6403L35.1289 48.6058H35.1985Z" fill="#617BA1"/>
<path d="M35.2717 48.6058L50.1084 55.5708V55.5973L35.2021 48.6058H35.2717Z" fill="#5F7AA1"/>
<path d="M35.3444 48.6058L50.1082 55.5245V55.5708L35.2715 48.6058H35.3444Z" fill="#5E7AA0"/>
<path d="M35.4138 48.6058L50.1081 55.498V55.5278L35.3442 48.6058H35.4138Z" fill="#5D79A0"/>
<path d="M35.5002 48.6058L50.1083 55.4583V55.498L35.4141 48.6058H35.5002Z" fill="#5C789F"/>
<path d="M35.5696 48.6058L50.1081 55.4285V55.4583L35.5 48.6058H35.5696Z" fill="#5B769E"/>
<path d="M35.6423 48.6058L50.108 55.3887V55.4285L35.5728 48.6058H35.6423Z" fill="#5A769E"/>
<path d="M35.7121 48.6058L50.105 55.359V55.3887L35.6426 48.6025L35.7121 48.6058Z" fill="#5A759D"/>
<path d="M35.7815 48.6058L50.1047 55.3192V55.3589L35.7119 48.6058H35.7815Z" fill="#58759E"/>
<path d="M35.858 48.6058L50.1084 55.2927V55.3192L35.7852 48.6058H35.858Z" fill="#57749C"/>
<path d="M35.9407 48.6058L50.1083 55.2464V55.2894L35.8579 48.6025L35.9407 48.6058Z" fill="#56739B"/>
<path d="M36.0133 48.6058L50.108 55.2199V55.2464L35.9404 48.6058H36.0133Z" fill="#55729B"/>
<path d="M36.0831 48.6058L50.1049 55.1934V55.2199L36.0103 48.6058H36.0831Z" fill="#55719A"/>
<path d="M36.156 48.6058L50.1082 55.1504V55.1934L36.0864 48.6058H36.156Z" fill="#53709A"/>
<path d="M36.2253 48.6058L50.1047 55.1239V55.1504L36.1558 48.6058H36.2253Z" fill="#537099"/>
<path d="M36.2986 48.6058L50.1084 55.0809V55.1239L36.229 48.6025H36.2953L36.2986 48.6058Z" fill="#506F98"/>
<path d="M36.3711 48.6058L50.108 55.0544V55.0809L36.2949 48.6058H36.3711Z" fill="#506E98"/>
<path d="M36.4539 48.6058L50.108 55.0114V55.0544L36.3711 48.6058H36.4539Z" fill="#4F6D97"/>
<path d="M36.5237 48.6058L50.1049 54.9849V55.0114L36.4541 48.6058H36.5237Z" fill="#4E6C97"/>
<path d="M36.5963 48.6058L50.1047 54.9418V54.9816L36.5234 48.6058H36.5963Z" fill="#4E6B96"/>
<path d="M36.6696 48.6058L50.1051 54.912V54.9418L36.5967 48.6058H36.6696Z" fill="#4C6B95"/>
<path d="M36.739 48.6058L50.1082 54.8723V54.912L36.6694 48.6058H36.739Z" fill="#4B6A95"/>
<path d="M36.8083 48.6058L50.1047 54.8425V54.8723L36.7388 48.6058H36.8083Z" fill="#4B6995"/>
<path d="M36.8981 48.6058L50.1084 54.8028V54.8425L36.812 48.6058H36.8981Z" fill="#496894"/>
<path d="M36.9674 48.6058L50.1081 54.773V54.8028L36.8945 48.6058H36.9674Z" fill="#486793"/>
<path d="M37.0368 48.6058L50.1047 54.73V54.773L36.9673 48.6058H37.0368Z" fill="#476694"/>
<path d="M37.11 48.6058L50.1049 54.7035V54.7333L37.0371 48.6058H37.11Z" fill="#466692"/>
<path d="M37.1827 48.6058L50.1081 54.6638V54.7035L37.1099 48.6058H37.1827Z" fill="#456592"/>
<path d="M37.2522 48.6058L50.1047 54.634V54.6605L37.1826 48.6025L37.2522 48.6058Z" fill="#446491"/>
<path d="M37.3353 48.6058L50.1049 54.6075V54.634L37.2524 48.6058H37.3353Z" fill="#436391"/>
<path d="M37.4113 48.6058L50.1081 54.5645V54.6075L37.3384 48.6058H37.4113Z" fill="#426290"/>
<path d="M37.4811 48.6058L50.1083 54.538V54.5645L37.4082 48.6058H37.4811Z" fill="#41618F"/>
<path d="M37.5505 48.6058L50.1049 54.4949V54.538L37.481 48.6058H37.5505Z" fill="#40618E"/>
<path d="M37.6232 48.6058L50.1047 54.4652V54.495L37.5503 48.6025L37.6232 48.6058Z" fill="#3F608E"/>
<path d="M37.6964 48.6058L50.1083 54.4254V54.4651L37.6235 48.6058H37.6964Z" fill="#3E5F8C"/>
<path d="M37.7657 48.6058L50.1081 54.3989V54.4254L37.6929 48.6058H37.7657Z" fill="#3C5D8D"/>
<path d="M37.8488 48.6058L50.1051 54.3559V54.3956L37.7627 48.6025L37.8488 48.6058Z" fill="#3C5D8C"/>
<path d="M37.9216 48.6058L50.1083 54.3261V54.3559L37.8521 48.6058H37.9216Z" fill="#3C5C8A"/>
<path d="M37.9943 48.6058L50.1081 54.2864V54.3261L37.9214 48.6058H37.9943Z" fill="#3B5C8A"/>
<path d="M38.067 48.6058L50.108 54.2566V54.2864L37.9941 48.6058H38.067Z" fill="#395B8A"/>
<path d="M38.1368 48.6058L50.1082 54.2169V54.2566L38.064 48.6058H38.1368Z" fill="#385A8A"/>
<path d="M38.2063 48.6058L50.1081 54.1871V54.2169L38.1367 48.6058H38.2063Z" fill="#365989"/>
<path d="M50.1084 54.1904L38.2065 48.6058H50.105V54.1871L50.1084 54.1904Z" fill="#365989"/>
</g>
</g>
<g style="mix-blend-mode:multiply">
<mask id="mask1_32_85" style="mask-type:luminance" maskUnits="userSpaceOnUse" x="24" y="54" width="9" height="13">
<g style="mix-blend-mode:multiply">
<path d="M30.7398 54.2168C30.7398 54.2168 31.6077 61.0527 32.2636 65.7269L29.4016 66.3691L26.152 66.9716C26.152 66.9716 25.5955 60.4535 24.0718 55.6833L26.0659 55.3324C26.0659 55.3324 27.9342 54.955 28.4012 54.816L29.6003 54.5213L30.7398 54.2168Z" fill="white"/>
</g>
</mask>
<g mask="url(#mask1_32_85)">
<path d="M27.1888 54.2167L32.2469 65.7267C30.4681 66.1902 26.8741 66.8456 26.1056 66.8456C25.4099 66.8456 24.7375 66.9549 24.0386 66.9549V54.2167H27.1888Z" fill="white"/>
<path d="M27.235 54.2168L28.5169 66.955H28.4738L27.1919 54.2168H27.235Z" fill="white"/>
<path d="M27.2618 54.2168L28.5471 66.955H28.514L27.2354 54.2168H27.2618Z" fill="white"/>
<path d="M27.2881 54.2168L28.5701 66.955H28.5435L27.2583 54.2168H27.2914H27.2881Z" fill="#FEFEFF"/>
<path d="M27.3312 54.2168L28.6131 66.955H28.57L27.2881 54.2168H27.3312Z" fill="#FDFDFE"/>
<path d="M27.361 54.2168L28.6429 66.955H28.6197L27.3345 54.2168H27.361Z" fill="#FCFDFE"/>
<path d="M27.4039 54.2168L28.6726 66.955H28.6428L27.3608 54.2168H27.4039Z" fill="#FBFCFD"/>
<path d="M27.4341 54.2168L28.716 66.955H28.673L27.4043 54.2168H27.4341Z" fill="#FAFBFC"/>
<path d="M27.4602 54.2168L28.7421 66.955H28.7189L27.437 54.2168H27.4635H27.4602Z" fill="#F9FAFC"/>
<path d="M27.5002 54.2168L28.7854 66.955H28.7424L27.4604 54.2168H27.5002Z" fill="#F8F9FB"/>
<path d="M27.5332 54.2168L28.8152 66.955H28.7854L27.5034 54.2168H27.5332Z" fill="#F7F8FB"/>
<path d="M27.5596 54.2168L28.8415 66.955H28.8117L27.5298 54.2168H27.5596Z" fill="#F5F8FA"/>
<path d="M27.6026 54.2168L28.8846 66.955H28.8415L27.5596 54.2168H27.6026Z" fill="#F4F6F8"/>
<path d="M27.6295 54.2168L28.9148 66.955H28.885L27.603 54.2168H27.6295Z" fill="#F3F5F8"/>
<path d="M27.6759 54.2168L28.9446 66.955H28.9148L27.6328 54.2168H27.6759Z" fill="#F2F4F7"/>
<path d="M27.7022 54.2168L28.9841 66.955H28.9411L27.6724 54.2168H27.7055H27.7022Z" fill="#F1F3F7"/>
<path d="M27.7321 54.2168L29.014 66.955H28.9875L27.7056 54.2168H27.7321Z" fill="#F0F2F6"/>
<path d="M27.7751 54.2168L29.057 66.955H29.0173L27.7354 54.2168H27.7751Z" fill="#EFF2F5"/>
<path d="M27.8014 54.2168L29.0833 66.955H29.0568L27.7749 54.2168H27.8014Z" fill="#EEF1F5"/>
<path d="M27.8448 54.2168L29.1135 66.955H29.0837L27.8018 54.2168H27.8448Z" fill="#EDF0F4"/>
<path d="M27.8712 54.2168L29.1565 66.955H29.1134L27.8447 54.2168H27.8712Z" fill="#ECEFF4"/>
<path d="M27.901 54.2168L29.1863 66.955H29.1564L27.8745 54.2168H27.901Z" fill="#EBEEF3"/>
<path d="M27.9439 54.2168L29.2259 66.955H29.1861L27.9009 54.2168H27.9439Z" fill="#EAEDF4"/>
<path d="M27.9737 54.2168L29.2556 66.955H29.2258L27.9438 54.2168H27.9737Z" fill="#E9EDF3"/>
<path d="M28.0005 54.2168L29.2825 66.955H29.256L27.9707 54.2168H28.0038H28.0005Z" fill="#E8ECF1"/>
<path d="M28.0435 54.2168L29.3288 66.955H29.2824L28.0005 54.2168H28.0435Z" fill="#E8EBF2"/>
<path d="M28.0734 54.2168L29.3553 66.955H29.3288L28.0469 54.2168H28.0734Z" fill="#E6EAF0"/>
<path d="M28.1163 54.2168L29.385 66.955H29.3552L28.0732 54.2168H28.1163Z" fill="#E5E9F1"/>
<path d="M28.1426 54.2168L29.4279 66.955H29.3815L28.1128 54.2168H28.1393H28.1426Z" fill="#E4E8F0"/>
<path d="M28.1725 54.2168L29.4577 66.955H29.4279L28.146 54.2168H28.1725Z" fill="#E4E8EF"/>
<path d="M28.2154 54.2168L29.5007 66.955H29.4576L28.1724 54.2168H28.2154Z" fill="#E3E7EF"/>
<path d="M28.2453 54.2168L29.5272 66.955H29.5007L28.2188 54.2168H28.2453Z" fill="#E1E6ED"/>
<path d="M28.272 54.2168L29.5539 66.955H29.5274L28.2422 54.2168H28.2753H28.272Z" fill="#E0E5ED"/>
<path d="M28.3185 54.2168L29.6004 66.955H29.5573L28.2754 54.2168H28.3185Z" fill="#DEE4EC"/>
<path d="M28.3414 54.2168L29.6267 66.955H29.5969L28.3149 54.2168H28.3414Z" fill="#DEE3EB"/>
<path d="M28.3878 54.2168L29.6532 66.955H29.6267L28.3447 54.2168H28.3878Z" fill="#DDE3EB"/>
<path d="M28.4146 54.2168L29.6965 66.955H29.6535L28.3848 54.2168H28.4146Z" fill="#DCE2EA"/>
<path d="M28.4444 54.2168L29.7263 66.955H29.6965L28.4146 54.2168H28.4444Z" fill="#DBE1EA"/>
<path d="M28.4874 54.2168L29.7693 66.955H29.7263L28.4443 54.2168H28.4874Z" fill="#DAE0E9"/>
<path d="M28.5171 54.2168L29.7991 66.955H29.7692L28.4873 54.2168H28.5171Z" fill="#D9DFE8"/>
<path d="M28.5436 54.2168L29.8255 66.955H29.799L28.5171 54.2168H28.5436Z" fill="#D8DEE8"/>
<path d="M28.5865 54.2168L29.8685 66.955H29.8254L28.5435 54.2168H28.5865Z" fill="#D7DDE7"/>
<path d="M28.6129 54.2168L29.8982 66.955H29.8684L28.5864 54.2168H28.6129Z" fill="#D6DCE6"/>
<path d="M28.6563 54.2168L29.925 66.955H29.8952L28.6133 54.2168H28.6563Z" fill="#D6DCE6"/>
<path d="M28.6862 54.2168L29.9714 66.955H29.9284L28.6597 54.2168H28.6862Z" fill="#D4DBE5"/>
<path d="M28.7125 54.2168L29.9978 66.955H29.968L28.686 54.2168H28.7125Z" fill="#D4DAE5"/>
<path d="M28.7589 54.2168L30.0408 66.955H29.9978L28.7158 54.2168H28.7589Z" fill="#D2D9E4"/>
<path d="M28.7853 54.2168L30.0672 66.955H30.044L28.7588 54.2168H28.7886H28.7853Z" fill="#D1D9E5"/>
<path d="M28.815 54.2168L30.0969 66.955H30.0671L28.7852 54.2168H28.815Z" fill="#D1D8E3"/>
<path d="M28.8552 54.2168L30.1404 66.955H30.0974L28.8154 54.2168H28.8552Z" fill="#D0D7E2"/>
<path d="M28.8849 54.2168L30.1701 66.955H30.1403L28.8584 54.2168H28.8849Z" fill="#CFD6E2"/>
<path d="M28.9278 54.2168L30.1965 66.955H30.1667L28.8848 54.2168H28.9278Z" fill="#CDD5E1"/>
<path d="M28.9575 54.2168L30.2395 66.955H30.1964L28.9277 54.2168H28.9575Z" fill="#CCD4E1"/>
<path d="M28.984 54.2168L30.2693 66.955H30.2395L28.9575 54.2168H28.9873H28.984Z" fill="#CCD4E0"/>
<path d="M29.0304 54.2168L30.3123 66.955H30.2692L28.9873 54.2168H29.0304Z" fill="#CAD3DE"/>
<path d="M29.0572 54.2168L30.3391 66.955H30.3126L29.0273 54.2168H29.0572Z" fill="#C9D2DF"/>
<path d="M29.0836 54.2168L30.3689 66.955H30.3391L29.0571 54.2168H29.0869H29.0836Z" fill="#C8D1DE"/>
<path d="M29.1266 54.2168L30.4085 66.955H30.3654L29.0835 54.2168H29.1266Z" fill="#C7D0DE"/>
<path d="M29.1563 54.2168L30.4382 66.955H30.4084L29.1265 54.2168H29.1563Z" fill="#C7CFDD"/>
<path d="M29.1994 54.2168L30.4648 66.955H30.4416L29.1597 54.2168H29.2027H29.1994Z" fill="#C5CFDC"/>
<path d="M29.229 54.2168L30.511 66.955H30.4679L29.1992 54.2168H29.229Z" fill="#C5CEDC"/>
<path d="M29.2559 54.2168L30.5378 66.955H30.508L29.2261 54.2168H29.2559Z" fill="#C4CDDB"/>
<path d="M29.2989 54.2168L30.5809 66.955H30.5411L29.2559 54.2168H29.2989Z" fill="#C3CCDB"/>
<path d="M29.3253 54.2168L30.6073 66.955H30.5808L29.2988 54.2168H29.3253Z" fill="#C2CCDA"/>
<path d="M29.3683 54.2168L30.6369 66.955H30.6104L29.3252 54.2168H29.3683Z" fill="#C0CBDA"/>
<path d="M29.3982 54.2168L30.6801 66.955H30.6404L29.375 54.2168H29.4015H29.3982Z" fill="#C0CAD9"/>
<path d="M29.4282 54.2168L30.7102 66.955H30.6804L29.3984 54.2168H29.4282Z" fill="#BFCAD9"/>
<path d="M29.4712 54.2168L30.7531 66.955H30.7067L29.4248 54.2168H29.4679H29.4712Z" fill="#BEC9D9"/>
<path d="M29.4977 54.2168L30.7829 66.955H30.7531L29.4712 54.2168H29.4977ZM29.5275 54.2168L30.8094 66.955H30.7829L29.4977 54.2168H29.5275Z" fill="#BCC7D7"/>
<path d="M29.5704 54.2168L30.8523 66.955H30.8093L29.5273 54.2168H29.5704Z" fill="#BCC7D7"/>
<path d="M29.5967 54.2168L30.8786 66.955H30.8521L29.5669 54.2168H29.5967Z" fill="#BAC5D5"/>
<path d="M29.6402 54.2168L30.9089 66.955H30.8791L29.5972 54.2168H29.6402Z" fill="#B9C4D6"/>
<path d="M29.6698 54.2168L30.9518 66.955H30.9054L29.6367 54.2168H29.6698Z" fill="#B8C4D5"/>
<path d="M29.6997 54.2168L30.9817 66.955H30.9519L29.6699 54.2168H29.6997Z" fill="#B7C3D5"/>
<path d="M29.7428 54.2168L31.0247 66.955H30.9816L29.6997 54.2168H29.7428Z" fill="#B6C1D3"/>
<path d="M29.7691 54.2168L31.051 66.955H31.0245L29.7393 54.2168H29.7691Z" fill="#B4C0D2"/>
<path d="M29.7989 54.2168L31.0808 66.955H31.0543L29.769 54.2168H29.7989Z" fill="#B3C0D2"/>
<path d="M29.8419 54.2168L31.1238 66.955H31.0808L29.7988 54.2168H29.8419Z" fill="#B2BFD1"/>
<path d="M29.8687 54.2168L31.1506 66.955H31.1241L29.8389 54.2168H29.8687Z" fill="#B1BED1"/>
<path d="M29.9117 54.2168L31.1804 66.955H31.1506L29.8687 54.2168H29.9117Z" fill="#B0BDD0"/>
<path d="M29.9414 54.2168L31.2234 66.955H31.1803L29.9116 54.2168H29.9414Z" fill="#AFBCCF"/>
<path d="M29.9679 54.2168L31.2498 66.955H31.2233L29.9414 54.2168H29.9679Z" fill="#AEBBCE"/>
<path d="M30.0109 54.2168L31.2962 66.955H31.2531L29.9712 54.2168H30.0109Z" fill="#ADBBCE"/>
<path d="M30.0444 54.2168L31.323 66.955H31.2965L30.0112 54.2168H30.0444Z" fill="#ACBACE"/>
<path d="M30.0675 54.2168L31.3528 66.955H31.323L30.041 54.2168H30.0675Z" fill="#ABB9CD"/>
<path d="M30.1104 54.2168L31.3924 66.955H31.3493L30.0674 54.2168H30.1104Z" fill="#AAB8CC"/>
<path d="M30.1368 54.2168L31.4221 66.955H31.3923L30.1104 54.2168H30.1368Z" fill="#A9B7CC"/>
<path d="M30.1798 54.2168L31.4485 66.955H31.422L30.1367 54.2168H30.1798Z" fill="#A9B6CB"/>
<path d="M30.2096 54.2168L31.4949 66.955H31.4518L30.1831 54.2168H30.2129H30.2096Z" fill="#A8B7CB"/>
<path d="M30.2427 54.2168L31.5213 66.955H31.4948L30.2129 54.2168H30.2394H30.2427Z" fill="#A7B6CA"/>
<path d="M30.2828 54.2168L31.5647 66.955H31.5217L30.2397 54.2168H30.2828Z" fill="#A5B4C9"/>
<path d="M30.3092 54.2168L31.5945 66.955H31.5613L30.2827 54.2168H30.3092Z" fill="#A4B3C9"/>
<path d="M30.3423 54.2168L31.6242 66.955H31.5944L30.3125 54.2168H30.3423Z" fill="#A4B2C8"/>
<path d="M30.3819 54.2168L31.6639 66.955H31.6208L30.3389 54.2168H30.3819Z" fill="#A3B2C8"/>
<path d="M30.4083 54.2168L31.6936 66.955H31.6638L30.3818 54.2168H30.4083Z" fill="#A2B2C7"/>
<path d="M30.4518 54.2168L31.7204 66.955H31.6939L30.4087 54.2168H30.4518Z" fill="#A1B1C7"/>
<path d="M30.4815 54.2168L31.7634 66.955H31.7203L30.4517 54.2168H30.4815Z" fill="#A0B0C6"/>
<path d="M30.5079 54.2168L31.7932 66.955H31.7634L30.4814 54.2168H30.5113H30.5079Z" fill="#9EAEC4"/>
<path d="M30.5543 54.2168L31.8362 66.955H31.7932L30.5112 54.2168H30.5543Z" fill="#9DADC5"/>
<path d="M30.5806 54.2168L31.8625 66.955H31.8327L30.5508 54.2168H30.5806Z" fill="#9CABC3"/>
<path d="M30.6236 54.2168L31.8923 66.955H31.8658L30.5806 54.2168H30.6236Z" fill="#9BACC3"/>
<path d="M30.6538 54.2168L31.9358 66.955H31.8927L30.624 54.2168H30.6538Z" fill="#99ABC3"/>
<path d="M30.6835 54.2168L31.9655 66.955H31.9323L30.6504 54.2168H30.6835Z" fill="#98AAC2"/>
<path d="M30.7232 54.2168L32.0085 66.955H31.9654L30.6802 54.2168H30.7232Z" fill="#97A9C2"/>
<path d="M30.753 54.2168L32.0349 66.955H32.0084L30.7231 54.2168H30.753Z" fill="#97A8C1"/>
<path d="M30.7826 54.2168L32.0646 66.955H32.0314L30.7495 54.2168H30.7793H30.7826Z" fill="#96A7C1"/>
<path d="M30.8258 54.2168L32.1077 66.955H32.0647L30.7827 54.2168H30.8258Z" fill="#95A6C0"/>
<path d="M30.8526 54.2168L32.1345 66.955H32.1047L30.8228 54.2168H30.8526Z" fill="#94A6BF"/>
<path d="M30.8956 54.2168L32.1643 66.955H32.1312L30.8525 54.2168H30.8956Z" fill="#93A5BF"/>
<path d="M30.9253 54.2168L32.2073 66.955H32.1642L30.8955 54.2168H30.9253Z" fill="#92A4BE"/>
<path d="M30.9517 54.2168L32.2336 66.955H32.2071L30.9219 54.2168H30.9517Z" fill="#91A4BF"/>
<path d="M30.9948 54.2168L32.2635 66.8458V66.955H32.237L30.9551 54.2168H30.9948Z" fill="#90A2BD"/>
<path d="M31.0244 54.2168L32.2633 66.5081V66.8458L30.9946 54.2168H31.0244Z" fill="#8FA1BC"/>
<path d="M31.0509 54.2168L32.2633 66.1738V66.5114L31.0244 54.2168H31.0509Z" fill="#8EA2BD"/>
<path d="M31.0943 54.2168L32.2636 65.8394V66.1738L31.0513 54.2168H31.0943Z" fill="#8DA0BB"/>
<path d="M31.1241 54.2168L32.2635 65.4918V65.8394L31.0942 54.2168H31.1241Z" fill="#8C9FBC"/>
<path d="M31.1671 54.2168L32.2635 65.1575V65.4885L31.124 54.2168H31.1671Z" fill="#8B9EBB"/>
<path d="M31.1969 54.2168L32.2635 64.8198V65.1575L31.1704 54.2168H31.1969Z" fill="#8A9DBA"/>
<path d="M31.2232 54.2168L32.2633 64.4855V64.8198L31.1934 54.2168H31.2232Z" fill="#899DBA"/>
<path d="M31.2662 54.2168L32.26 64.1511V64.4855L31.2231 54.2168H31.2662Z" fill="#889DB9"/>
<path d="M31.2931 54.2168L32.2637 63.8168V64.1511L31.2666 54.2168H31.2931Z" fill="#879CB9"/>
<path d="M31.3228 54.2168L32.2635 63.4659V63.8168L31.293 54.2168H31.3228Z" fill="#869BB9"/>
<path d="M31.3658 54.2168L32.2602 63.1316V63.4659L31.3228 54.2168H31.3658Z" fill="#859AB7"/>
<path d="M31.3922 54.2168L32.2634 62.7972V63.1316L31.3657 54.2168H31.3922Z" fill="#8599B7"/>
<path d="M31.4352 54.2168L32.2633 62.4629V62.7972L31.3921 54.2168H31.4352Z" fill="#8398B6"/>
<path d="M31.4654 54.2168L32.2604 62.1285V62.4629L31.4355 54.2168H31.4687H31.4654Z" fill="#8298B6"/>
<path d="M31.4951 54.2168L32.2636 61.7942V62.1252L31.4653 54.2135L31.4951 54.2168Z" fill="#8196B4"/>
<path d="M31.5349 54.2168L32.2636 61.4598V61.7909L31.4951 54.2168H31.5349Z" fill="#7F95B3"/>
<path d="M31.5678 54.2168L32.2634 61.1089V61.4565L31.5347 54.2168H31.5678Z" fill="#7E94B3"/>
<path d="M31.5944 54.2168L32.2635 60.7713V61.1089L31.5679 54.2168H31.5944Z" fill="#7E93B2"/>
<path d="M31.634 54.2168L32.2634 60.4402V60.7713L31.5942 54.2168H31.634Z" fill="#7E93B2"/>
<path d="M31.6674 54.2168L32.2637 60.1059V60.4369L31.6343 54.2135L31.6674 54.2168Z" fill="#7C92B1"/>
<path d="M31.7072 54.2168L32.2637 59.7683V60.1059L31.6675 54.2135L31.7072 54.2168Z" fill="#7B91B0"/>
<path d="M31.7368 54.2168L32.2668 59.4339V59.7682L31.707 54.2168H31.7368Z" fill="#7A90B0"/>
<path d="M31.7665 54.2168L32.2634 59.083V59.4339L31.7334 54.2168H31.7665Z" fill="#798FAF"/>
<path d="M31.8062 54.2168L32.2601 58.752V59.083L31.7632 54.2168H31.8062Z" fill="#788FAF"/>
<path d="M31.8327 54.2168L32.2633 58.4143V58.752L31.8062 54.2168H31.836H31.8327Z" fill="#778EAE"/>
<path d="M31.8628 54.2168L32.2603 58.08V58.4143L31.833 54.2168H31.8628Z" fill="#768DAD"/>
<path d="M31.906 54.2168L32.2637 57.7456V58.08L31.8662 54.2168H31.906Z" fill="#758DAE"/>
<path d="M31.9323 54.2168L32.2635 57.4113V57.7456L31.9058 54.2168H31.9323Z" fill="#748CAD"/>
<path d="M31.9786 54.2168L32.2668 57.0637V57.4113L31.9355 54.2168H31.9786Z" fill="#738AAD"/>
<path d="M32.005 54.2168L32.2634 56.726V57.0637L31.9785 54.2168H32.005Z" fill="#7189AC"/>
<path d="M32.0381 54.2168L32.2634 56.3917V56.726L32.0083 54.2168H32.0381Z" fill="#7088AC"/>
<path d="M32.0781 54.2168L32.2636 56.0573V56.3917L32.0317 54.2168H32.0781Z" fill="#7089AA"/>
<path d="M32.1079 54.2168L32.2636 55.723V56.0573L32.0781 54.2168H32.1079Z" fill="#6F88AA"/>
<path d="M32.1476 54.2168L32.2635 55.3887V55.7197L32.1045 54.2168H32.1476Z" fill="#6F87AA"/>
<path d="M32.1773 54.2168L32.2634 55.0378V55.3887L32.1475 54.2168H32.1773Z" fill="#6C85A8"/>
<path d="M32.2037 54.2168L32.2601 54.7034V55.0378L32.1772 54.2168H32.2037Z" fill="#6C85A9"/>
<path d="M32.2501 54.2168L32.2633 54.3691V54.7034L32.207 54.2168H32.2501Z" fill="#6A84A7"/>
<path d="M32.2636 54.3757L32.2471 54.2168H32.2636V54.3757Z" fill="#6A84A7"/>
</g>
</g>
<g style="mix-blend-mode:multiply">
<mask id="mask2_32_85" style="mask-type:luminance" maskUnits="userSpaceOnUse" x="50" y="38" width="15" height="14">
<g style="mix-blend-mode:multiply">
<path d="M59.5125 51.3268C59.5125 51.3268 53.8846 46.0104 50.3369 43.9315L50.8073 43.4416L51.3472 42.8557C51.3472 42.8557 52.1025 41.9917 52.1323 41.9486C52.5464 41.4752 53.5699 40.1213 53.656 39.9657L54.9247 38.0557C54.9247 38.0557 58.8997 41.3495 64.2461 45.4245L62.7886 47.4339L61.5961 48.9831C61.5961 48.9831 60.9104 49.7908 60.8674 49.8339L59.5125 51.3268Z" fill="white"/>
</g>
</mask>
<g mask="url(#mask2_32_85)">
<path d="M52.1389 40.1213L52.1124 40.1544L62.9112 48.2648L62.9344 48.2317L52.1389 40.1213ZM52.1124 40.1611L52.0859 40.1942L62.8847 48.3045L62.9079 48.2714L52.1091 40.1611H52.1124Z" fill="white"/>
<path d="M52.0993 40.1743L52.0728 40.2074L62.8715 48.3178L62.8947 48.2847L52.0993 40.1743Z" fill="#FEFEFF"/>
<path d="M52.0724 40.2207L52.0459 40.2538L62.8446 48.3675L62.8678 48.3344L52.0691 40.224L52.0724 40.2207Z" fill="#FDFDFE"/>
<path d="M52.046 40.2472L52.0195 40.2803L62.8183 48.3906L62.8448 48.3575L52.046 40.2472Z" fill="#FCFDFE"/>
<path d="M52.0197 40.2736L51.9932 40.3067L62.7919 48.4203L62.8151 48.3872L52.0164 40.2769L52.0197 40.2736Z" fill="#FBFCFD"/>
<path d="M51.9929 40.3L51.9697 40.3332L62.7685 48.4435L62.7917 48.4104L51.9929 40.3Z" fill="#FAFBFC"/>
<path d="M51.9733 40.3398L51.9468 40.3729L62.7455 48.4833L62.772 48.4502L51.9733 40.3398Z" fill="#F9FAFC"/>
<path d="M51.9402 40.353L51.917 40.3861L62.7157 48.4998L62.7389 48.4667L51.9402 40.3563V40.353Z" fill="#F8F9FB"/>
<path d="M51.9337 40.3994L51.9072 40.4325L62.706 48.5462L62.7325 48.5131L51.9337 40.3994Z" fill="#F7F8FB"/>
<path d="M51.8937 40.4259L51.8672 40.459L62.6659 48.5727L62.6924 48.5396L51.8937 40.4292V40.4259Z" fill="#F5F8FA"/>
<path d="M51.8805 40.4524L51.854 40.4855L62.6528 48.5991L62.6759 48.566L51.8772 40.4557L51.8805 40.4524Z" fill="#F4F6F8"/>
<path d="M51.8576 40.4921L51.8311 40.5252L62.6298 48.6388L62.653 48.6057L51.8542 40.4954L51.8576 40.4921Z" fill="#F3F5F8"/>
<path d="M51.8209 40.5186L51.7944 40.5517L62.5932 48.662L62.6164 48.6289L51.8176 40.5186H51.8209Z" fill="#F2F4F7"/>
<path d="M51.8175 40.565L51.791 40.5981L62.5898 48.7051L62.6196 48.672L51.8175 40.565Z" fill="#F1F3F7"/>
<path d="M51.7946 40.5814L51.7681 40.6145L62.5668 48.7249L62.59 48.6918L51.7946 40.5814Z" fill="#F0F2F6"/>
<path d="M51.7545 40.6179L51.728 40.651L62.5268 48.7647L62.5533 48.7316L51.7545 40.6179Z" fill="#EFF2F5"/>
<path d="M51.7412 40.6344L51.7114 40.6675L62.5102 48.7778L62.5367 48.7447L51.7412 40.6344Z" fill="#EEF1F5"/>
<path d="M51.7018 40.6742L51.6753 40.7073L62.474 48.8176L62.5005 48.7845L51.7018 40.6742Z" fill="#EDF0F4"/>
<path d="M51.6784 40.6974L51.6519 40.7305L62.4506 48.8441L62.4771 48.811L51.6784 40.7007V40.6974Z" fill="#ECEFF4"/>
<path d="M51.675 40.7338L51.6519 40.7669L62.4506 48.8805L62.4738 48.8474L51.675 40.7338Z" fill="#EBEEF3"/>
<path d="M51.6388 40.7603L51.6123 40.7934L62.4111 48.9037L62.4376 48.8706L51.6388 40.7603Z" fill="#EAEDF4"/>
<path d="M51.6154 40.7999L51.5889 40.833L62.3876 48.9434L62.4141 48.9103L51.6154 40.7999Z" fill="#E9EDF3"/>
<path d="M51.5856 40.8132L51.5591 40.8463L62.3578 48.9567L62.3843 48.9236L51.5856 40.8132Z" fill="#E8ECF1"/>
<path d="M51.5627 40.8496L51.5396 40.8827L62.3383 48.9997L62.3615 48.9666L51.5627 40.8496Z" fill="#E8EBF2"/>
<path d="M51.5524 40.8827L51.5259 40.9158L62.3246 49.0328L62.3478 48.9997L51.5491 40.886L51.5524 40.8827Z" fill="#E6EAF0"/>
<path d="M51.5095 40.9258L51.4863 40.9589L62.2851 49.0692L62.3116 49.0361L51.5095 40.9258Z" fill="#E5E9F1"/>
<path d="M51.4996 40.939L51.4731 40.9721L62.2719 49.0824L62.2951 49.0493L51.4963 40.939H51.4996Z" fill="#E4E8F0"/>
<path d="M51.4763 40.9788L51.4531 41.0119L62.2519 49.1222L62.2751 49.0891L51.4763 40.9788Z" fill="#E4E8EF"/>
<path d="M51.4367 41.0018L51.4102 41.0349L62.2089 49.1486L62.2354 49.1155L51.4367 41.0051V41.0018Z" fill="#E3E7EF"/>
<path d="M51.4236 41.0317L51.4004 41.0648L62.1991 49.1752L62.2223 49.1421L51.4236 41.0317Z" fill="#E1E6ED"/>
<path d="M51.3967 41.0813L51.3735 41.1144L62.1723 49.2247L62.1955 49.1916L51.3967 41.0813Z" fill="#E0E5ED"/>
<path d="M51.3771 41.1045L51.3506 41.1376L62.1493 49.2479L62.1725 49.2148L51.3738 41.1045H51.3771Z" fill="#DEE4EC"/>
<path d="M51.3605 41.131L51.334 41.1641L62.1327 49.2777L62.1592 49.2446L51.3605 41.131Z" fill="#DEE3EB"/>
<path d="M51.3239 41.1575L51.2974 41.1906L62.0961 49.3009L62.1193 49.2678L51.3206 41.1575H51.3239Z" fill="#DDE3EB"/>
<path d="M51.3009 41.1971L51.2744 41.2302L62.0732 49.3406L62.0964 49.3075L51.2976 41.1971H51.3009Z" fill="#DCE2EA"/>
<path d="M51.2809 41.2203L51.2544 41.2534L62.0531 49.3638L62.0796 49.3307L51.2809 41.2203Z" fill="#DBE1EA"/>
<path d="M51.2579 41.2568L51.2314 41.2899L62.0302 49.4036L62.0567 49.3705L51.2579 41.2568Z" fill="#DAE0E9"/>
<path d="M51.2379 41.2833L51.2114 41.3164L62.0102 49.4268L62.0367 49.3937L51.2379 41.2833Z" fill="#D9DFE8"/>
<path d="M51.2115 41.3131L51.1816 41.3462L61.9804 49.4566L62.0069 49.4235L51.2081 41.3131H51.2115Z" fill="#D8DEE8"/>
<path d="M51.1814 41.3362L51.1582 41.3693L61.957 49.4829L61.9801 49.4498L51.1814 41.3362Z" fill="#D7DDE7"/>
<path d="M51.1453 41.376L51.1221 41.4091L61.9208 49.5194L61.944 49.4863L51.1453 41.376Z" fill="#D6DCE6"/>
<path d="M51.1452 41.3992L51.1187 41.4323L61.9174 49.5426L61.9406 49.5095L51.1452 41.3992Z" fill="#D6DCE6"/>
<path d="M51.1188 41.4388L51.0923 41.4719L61.891 49.5823L61.9175 49.5492L51.1188 41.4388Z" fill="#D4DBE5"/>
<path d="M51.0822 41.462L51.0557 41.4951L61.8544 49.6088L61.8809 49.5757L51.0822 41.4653V41.462Z" fill="#D4DAE5"/>
<path d="M51.069 41.4918L51.0425 41.5249L61.8412 49.6353L61.8644 49.6022L51.069 41.4918Z" fill="#D2D9E4"/>
<path d="M51.0455 41.515L51.019 41.5481L61.8178 49.6618L61.841 49.6287L51.0422 41.5183L51.0455 41.515Z" fill="#D1D9E5"/>
<path d="M51.0158 41.5647L50.9893 41.5978L61.788 49.7081L61.8145 49.675L51.0158 41.5647Z" fill="#D1D8E3"/>
<path d="M51.006 41.5779L50.9795 41.611L61.7782 49.7213L61.8014 49.6882L51.006 41.5779Z" fill="#D0D7E2"/>
<path d="M50.9664 41.6176L50.9399 41.6507L61.7387 49.761L61.7652 49.7279L50.9664 41.6176Z" fill="#CFD6E2"/>
<path d="M50.943 41.6573L50.9165 41.6905L61.7153 49.8008L61.7384 49.7677L50.943 41.6573Z" fill="#CDD5E1"/>
<path d="M50.9264 41.6705L50.8999 41.7036L61.6986 49.814L61.7252 49.7809L50.9264 41.6705Z" fill="#CCD4E1"/>
<path d="M50.8899 41.7103L50.8667 41.7434L61.6654 49.8538L61.6886 49.8207L50.8899 41.7103Z" fill="#CCD4E0"/>
<path d="M50.8799 41.7434L50.8501 41.7765L61.6488 49.8869L61.6753 49.8538L50.8799 41.7434Z" fill="#CAD3DE"/>
<path d="M50.8469 41.7699L50.8237 41.803L61.6225 49.9167L61.6457 49.8836L50.8469 41.7732V41.7699Z" fill="#C9D2DF"/>
<path d="M50.8273 41.7964L50.8008 41.8295L61.5995 49.9398L61.6227 49.9067L50.8273 41.7964Z" fill="#C8D1DE"/>
<path d="M50.8038 41.8361L50.7773 41.8692L61.5761 49.9795L61.6026 49.9464L50.8038 41.8361Z" fill="#C7D0DE"/>
<path d="M50.7741 41.8494L50.7476 41.8825L61.5463 49.9928L61.5695 49.9597L50.7707 41.8494H50.7741Z" fill="#C7CFDD"/>
<path d="M50.761 41.8956L50.7378 41.9287L61.5365 50.0424L61.5597 50.0093L50.761 41.8956Z" fill="#C5CFDC"/>
<path d="M50.7409 41.9221L50.7144 41.9552L61.5131 50.0656L61.5363 50.0325L50.7409 41.9221Z" fill="#C5CEDC"/>
<path d="M50.7144 41.9486L50.6846 41.9817L61.4833 50.0954L61.5098 50.0623L50.7111 41.9519L50.7144 41.9486Z" fill="#C4CDDB"/>
<path d="M50.6881 41.9751L50.6616 42.0082L61.4604 50.1185L61.4869 50.0854L50.6881 41.9751Z" fill="#C3CCDB"/>
<path d="M50.6482 42.0149L50.625 42.048L61.4237 50.1583L61.4469 50.1252L50.6482 42.0149Z" fill="#C2CCDA"/>
<path d="M50.6349 42.0281L50.6084 42.0612L61.4071 50.1748L61.4336 50.1417L50.6349 42.0281Z" fill="#C0CBDA"/>
<path d="M50.6217 42.0745L50.5952 42.1076L61.394 50.2212L61.4205 50.1881L50.6217 42.0778V42.0745Z" fill="#C0CAD9"/>
<path d="M50.5852 42.101L50.562 42.1341L61.3608 50.2477L61.3839 50.2146L50.5852 42.101Z" fill="#BFCAD9"/>
<path d="M50.5719 42.1307L50.5454 42.1638L61.3442 50.2742L61.3707 50.2411L50.5719 42.1307Z" fill="#BEC9D9"/>
<path d="M50.5323 42.1539L50.5091 42.187L61.3078 50.3007L61.331 50.2676L50.5323 42.1539ZM50.5124 42.1937L50.4859 42.2268L61.2847 50.3371L61.3078 50.304L50.5124 42.1937ZM50.4992 42.24L50.4727 42.2731L61.2714 50.3868L61.2979 50.3537L50.4992 42.24Z" fill="#BCC7D7"/>
<path d="M50.4694 42.2565L50.4429 42.2896L61.2416 50.3999L61.2681 50.3668L50.4694 42.2565Z" fill="#BAC5D5"/>
<path d="M50.4493 42.2963L50.4229 42.3294L61.2183 50.4397L61.2448 50.4066L50.4493 42.2963Z" fill="#B9C4D6"/>
<path d="M50.423 42.3195L50.3965 42.3526L61.1952 50.4662L61.2217 50.4331L50.423 42.3195Z" fill="#B8C4D5"/>
<path d="M50.3933 42.3492L50.3701 42.3823L61.1689 50.4927L61.1921 50.4596L50.3933 42.3492Z" fill="#B7C3D5"/>
<path d="M50.3732 42.3723L50.3467 42.4054L61.1454 50.5191L61.1686 50.486L50.3699 42.3756L50.3732 42.3723Z" fill="#B6C1D3"/>
<path d="M50.3435 42.422L50.3203 42.4551L61.1191 50.5654L61.1423 50.5323L50.3435 42.422Z" fill="#B4C0D2"/>
<path d="M61.1258 50.5588L61.096 50.5853L50.3237 42.4915V42.4518L61.1225 50.5621L61.1258 50.5588Z" fill="#B3C0D2"/>
<path d="M61.096 50.5854L61.0662 50.6152L50.3237 42.5379V42.4916L61.096 50.5854Z" fill="#B2BFD1"/>
<path d="M61.0661 50.6151L61.0528 50.6416L50.3203 42.5908V42.5345L61.0661 50.6151Z" fill="#B1BED1"/>
<path d="M61.0529 50.6416L61.0231 50.6714L50.3237 42.6339V42.5908L61.0529 50.6416Z" fill="#B0BDD0"/>
<path d="M61.023 50.6714L60.9965 50.7112L50.3203 42.6736V42.6339L61.023 50.6714Z" fill="#AFBCCF"/>
<path d="M60.9965 50.7144L60.9833 50.7409L50.3203 42.7299V42.6736L60.9965 50.7144Z" fill="#AEBBCE"/>
<path d="M60.9832 50.7409L60.9534 50.7674L50.3203 42.7729V42.7299L60.9832 50.7409Z" fill="#ADBBCE"/>
<path d="M60.9535 50.7674L60.9237 50.7972L50.3237 42.8292V42.7729L60.9535 50.7674Z" fill="#ACBACE"/>
<path d="M60.9236 50.7972L60.9104 50.8237L50.3203 42.8689V42.8292L60.9236 50.7972Z" fill="#ABB9CD"/>
<path d="M60.9104 50.8237L60.8806 50.8667L50.3203 42.9252V42.8689L60.9104 50.8237Z" fill="#AAB8CC"/>
<path d="M60.8839 50.8667L60.8508 50.8932L50.3203 42.9682V42.9252L60.8839 50.8667Z" fill="#A9B7CC"/>
<path d="M60.8508 50.8932L60.8375 50.923L50.3203 43.0245V42.9683L60.8508 50.8932Z" fill="#A9B6CB"/>
<path d="M60.8375 50.923L60.811 50.9495L50.3203 43.0643V43.0245L60.8375 50.923Z" fill="#A8B7CB"/>
<path d="M60.811 50.9495L60.7812 50.9792L50.3203 43.1205V43.0642L60.811 50.9495Z" fill="#A7B6CA"/>
<path d="M60.7846 50.9792L60.768 51.0057L50.3237 43.1602V43.1205L60.7846 50.9792Z" fill="#A5B4C9"/>
<path d="M60.768 51.0058L60.7382 51.0488L50.3237 43.2199V43.1636L60.768 51.0058Z" fill="#A4B3C9"/>
<path d="M60.7382 51.0455L60.7117 51.0786L50.3237 43.2596V43.2198L60.7382 51.0455Z" fill="#A4B2C8"/>
<path d="M60.7116 51.0786L60.6951 51.105L50.3203 43.3158V43.2595L60.7116 51.0752V51.0786Z" fill="#A3B2C8"/>
<path d="M60.6951 51.105L60.6686 51.1315L50.3203 43.3588V43.3158L60.6951 51.105Z" fill="#A2B2C7"/>
<path d="M60.6686 51.1316L60.6387 51.1581L50.3203 43.3986V43.3589L60.6686 51.1316Z" fill="#A1B1C7"/>
<path d="M60.6389 51.158L60.6124 51.201L50.3237 43.4548V43.3986L60.6389 51.158Z" fill="#A0B0C6"/>
<path d="M60.6124 51.201L60.5958 51.2275L50.3237 43.4979V43.4548L60.6124 51.201Z" fill="#9EAEC4"/>
<path d="M60.5957 51.2309L60.5692 51.2574L50.3203 43.5542V43.4979L60.5957 51.2309Z" fill="#9DADC5"/>
<path d="M60.4963 51.2574L50.3203 43.5939V43.5542L60.5692 51.2574H60.4963Z" fill="#9CABC3"/>
<path d="M60.4401 51.2573L50.3237 43.6501V43.5939L60.4964 51.2573H60.4401Z" fill="#9BACC3"/>
<path d="M60.3704 51.2573L50.3203 43.6932V43.6501L60.44 51.2573H60.3704Z" fill="#99ABC3"/>
<path d="M60.3108 51.2574L50.3203 43.7495V43.6932L60.3704 51.2574H60.3108Z" fill="#98AAC2"/>
<path d="M60.2413 51.2574L50.3203 43.7925V43.7495L60.3108 51.2574H60.2413Z" fill="#97A9C2"/>
<path d="M60.1849 51.2573L50.3203 43.8454V43.7925L60.2413 51.2573H60.1849Z" fill="#97A8C1"/>
<path d="M60.1122 51.2573L50.3237 43.8885V43.8455L60.185 51.2573H60.1122Z" fill="#96A7C1"/>
<path d="M60.0559 51.2574L50.3237 43.9415V43.8885L60.1122 51.2574H60.0559Z" fill="#95A6C0"/>
<path d="M59.9829 51.2574L50.3203 43.9879V43.9448L60.0557 51.2574H59.9829Z" fill="#94A6BF"/>
<path d="M59.9266 51.2573L50.3203 44.0408V43.9878L59.9829 51.2573H59.9266Z" fill="#93A5BF"/>
<path d="M59.857 51.2573L50.3203 44.0838V44.0408L59.9266 51.2573H59.857Z" fill="#92A4BE"/>
<path d="M59.7975 51.2574L50.3237 44.1269V44.0839L59.8571 51.2574H59.7975Z" fill="#91A4BF"/>
<path d="M59.7278 51.2573L50.3203 44.1831V44.1268L59.7974 51.2573H59.7278Z" fill="#90A2BD"/>
<path d="M59.6716 51.2573L50.3237 44.2228V44.1831L59.7279 51.2573H59.6716Z" fill="#8FA1BC"/>
<path d="M59.5987 51.2574L50.3237 44.2792V44.2229L59.6716 51.2574H59.5987Z" fill="#8EA2BD"/>
<path d="M59.5423 51.2574L50.3203 44.3222V44.2792L59.5986 51.2574H59.5423Z" fill="#8DA0BB"/>
<path d="M59.5125 51.3268L50.3203 44.3751V44.3221L59.5854 51.2573L59.5125 51.3268Z" fill="#8C9FBC"/>
<path d="M59.4 51.2573L50.3237 44.4181V44.3784L59.4695 51.2573H59.4Z" fill="#8B9EBB"/>
<path d="M59.3437 51.2574L50.3237 44.4745V44.4182L59.4 51.2574H59.3437Z" fill="#8A9DBA"/>
<path d="M59.2707 51.2574L50.3203 44.5175V44.4745L59.3436 51.2574H59.2707Z" fill="#899DBA"/>
<path d="M59.2144 51.2573L50.3203 44.5704V44.5175L59.2707 51.2573H59.2144Z" fill="#889DB9"/>
<path d="M59.1448 51.2573L50.3203 44.6135V44.5737L59.2144 51.2573H59.1448Z" fill="#879CB9"/>
<path d="M59.0852 51.2574L50.3203 44.6698V44.6135L59.1448 51.2574H59.0852Z" fill="#869BB9"/>
<path d="M59.0157 51.2574L50.3237 44.7128V44.6698L59.0853 51.2574H59.0157Z" fill="#859AB7"/>
<path d="M58.9594 51.2573L50.3237 44.769V44.7128L59.0157 51.2573H58.9594Z" fill="#8599B7"/>
<path d="M58.8864 51.2573L50.3203 44.8088V44.769L58.9593 51.2573H58.8864Z" fill="#8398B6"/>
<path d="M58.8301 51.2574L50.3203 44.8519V44.8088L58.8864 51.2574H58.8301Z" fill="#8298B6"/>
<path d="M58.7574 51.2573L50.3237 44.9081V44.8518L58.8302 51.2573H58.7574Z" fill="#8196B4"/>
<path d="M58.7009 51.2573L50.3203 44.9478V44.9081L58.7573 51.2573H58.7009Z" fill="#7F95B3"/>
<path d="M58.6315 51.2574L50.3237 45.0042V44.9479L58.7044 51.2574H58.6315Z" fill="#7E94B3"/>
<path d="M58.5751 51.2574L50.3203 45.0472V45.0042L58.6314 51.2574H58.5751Z" fill="#7E93B2"/>
<path d="M58.5022 51.2573L50.3203 45.1001V45.0471L58.5751 51.2573H58.5022Z" fill="#7E93B2"/>
<path d="M58.446 51.2573L50.3237 45.1431V45.1034L58.5023 51.2573H58.446Z" fill="#7C92B1"/>
<path d="M58.3731 51.2574L50.3237 45.1995V45.1432L58.446 51.2574H58.3731Z" fill="#7B91B0"/>
<path d="M58.3167 51.2574L50.3203 45.2425V45.1995L58.373 51.2574H58.3167Z" fill="#7A90B0"/>
<path d="M58.2471 51.2573L50.3203 45.2987V45.2424L58.3167 51.2573H58.2471Z" fill="#798FAF"/>
<path d="M58.1876 51.2573L50.3237 45.3417V45.2987L58.2472 51.2573H58.1876Z" fill="#788FAF"/>
<path d="M58.1179 51.2574L50.3203 45.3981V45.3385L58.1875 51.2574H58.1179Z" fill="#778EAE"/>
<path d="M58.0617 51.2574L50.3237 45.4378V45.3948L58.118 51.2541H58.0617V51.2574Z" fill="#768DAD"/>
<path d="M57.9888 51.2573L50.3203 45.494V45.4377L58.0616 51.2573H57.9888Z" fill="#758DAE"/>
<path d="M57.9324 51.2573L50.3203 45.5337V45.494L57.9888 51.254H57.9324V51.2573Z" fill="#748CAD"/>
<path d="M57.8597 51.2573L50.3237 45.5767V45.5337L57.9325 51.2573H57.8597Z" fill="#738AAD"/>
<path d="M57.8034 51.2573L50.3237 45.6331V45.5768L57.8597 51.2573H57.8034Z" fill="#7189AC"/>
<path d="M57.7338 51.2573L50.3237 45.6761V45.6331L57.8034 51.2573H57.7338Z" fill="#7088AC"/>
<path d="M57.6608 51.2574L50.3203 45.7291V45.6761L57.7337 51.2574H57.6608Z" fill="#7089AA"/>
<path d="M57.6045 51.2574L50.3203 45.7721V45.7324L57.6608 51.2574H57.6045Z" fill="#6F88AA"/>
<path d="M57.5317 51.2573L50.3237 45.8284V45.7721L57.6046 51.2573H57.5317Z" fill="#6F87AA"/>
<path d="M57.4753 51.2573L50.3203 45.8714V45.8284L57.5316 51.2573H57.4753Z" fill="#6C85A8"/>
<path d="M57.4059 51.2574L50.3237 45.9277V45.8715L57.4787 51.2574H57.4059Z" fill="#6C85A9"/>
<path d="M57.3494 51.2574L50.3236 45.9675V45.9277L57.4057 51.2574H57.3494ZM57.2766 51.2574L50.3203 46.0237V45.9675L57.3494 51.2574H57.2766Z" fill="#6A84A7"/>
<path d="M57.2203 51.2573L50.3203 46.0667V46.0237L57.2766 51.254H57.2203V51.2573Z" fill="#6A83A6"/>
<path d="M57.1475 51.2574L50.3237 46.123V46.0668L57.2204 51.2574H57.1475Z" fill="#6882A5"/>
<path d="M57.0912 51.2574L50.3237 46.1628V46.123L57.1475 51.2541H57.0912V51.2574Z" fill="#6781A6"/>
<path d="M57.0182 51.2573L50.3203 46.219V46.1627L57.0911 51.2573H57.0215H57.0182Z" fill="#6680A5"/>
<path d="M56.9619 51.2573L50.3203 46.2587V46.219L57.0182 51.2573H56.9619Z" fill="#657EA3"/>
<path d="M56.8923 51.2574L50.3203 46.3184V46.2621L56.9619 51.2574H56.8923Z" fill="#647FA4"/>
<path d="M56.836 51.2574L50.3203 46.3581V46.3184L56.8923 51.2574H56.836Z" fill="#637EA3"/>
<path d="M56.7632 51.2573L50.3237 46.4011V46.358L56.8361 51.2573H56.7632Z" fill="#637DA2"/>
<path d="M56.7068 51.2574L50.3203 46.4574V46.4011L56.7631 51.2574H56.7068Z" fill="#627CA2"/>
<path d="M56.6339 51.2574L50.3203 46.4971V46.4574L56.7068 51.2574H56.6339Z" fill="#617BA1"/>
<path d="M56.5777 51.2573L50.3237 46.5567V46.4971L56.634 51.2573H56.5777Z" fill="#5F7AA1"/>
<path d="M56.5081 51.2573L50.3203 46.5964V46.5533L56.5809 51.254H56.5081V51.2573Z" fill="#5E7AA0"/>
<path d="M56.4484 51.2573L50.3203 46.6526V46.5963L56.5081 51.2573H56.4484Z" fill="#5D79A0"/>
<path d="M56.3789 51.2574L50.3203 46.6924V46.6527L56.4484 51.2541H56.3789V51.2574Z" fill="#5C789F"/>
<path d="M56.3226 51.2574L50.3203 46.7487V46.6924L56.3789 51.2574H56.3226Z" fill="#5B769E"/>
<path d="M56.2497 51.2573L50.3203 46.7884V46.7487L56.3226 51.2573H56.2497Z" fill="#5A769E"/>
<path d="M56.1935 51.2573L50.3237 46.8479V46.7916L56.2531 51.2573H56.1935Z" fill="#5A759D"/>
<path d="M56.1206 51.2573L50.3237 46.8876V46.8479L56.1935 51.2573H56.1239H56.1206Z" fill="#58759E"/>
<path d="M56.0642 51.2574L50.3203 46.944V46.8877L56.1205 51.2574H56.0642Z" fill="#57749C"/>
<path d="M55.9946 51.2574L50.3203 46.987V46.944L56.0642 51.2574H55.9946Z" fill="#56739B"/>
<path d="M55.9219 51.2573L50.3237 47.0432V46.9869L55.9947 51.2573H55.9219Z" fill="#55729B"/>
<path d="M55.8655 51.2573L50.3237 47.0862V47.0432L55.9219 51.2573H55.8655Z" fill="#55719A"/>
<path d="M55.7959 51.2574L50.3203 47.126V47.083L55.8654 51.254H55.7959V51.2574Z" fill="#53709A"/>
<path d="M55.7363 51.2573L50.3203 47.1823V47.126L55.7959 51.2573H55.7363Z" fill="#537099"/>
<path d="M55.6667 51.2573L50.3203 47.2253V47.1823L55.7363 51.254H55.6667V51.2573Z" fill="#506F98"/>
<path d="M55.6104 51.2573L50.3203 47.2816V47.2253L55.6667 51.2573H55.6104Z" fill="#506E98"/>
<path d="M55.5376 51.2573L50.3237 47.3213V47.2816L55.6105 51.254H55.5376V51.2573Z" fill="#4F6D97"/>
<path d="M55.4813 51.2573L50.3237 47.3776V47.3213L55.5376 51.2573H55.4813Z" fill="#4E6C97"/>
<path d="M55.4083 51.2573L50.3203 47.4173V47.3776L55.4812 51.2573H55.4083Z" fill="#4E6B96"/>
<path d="M55.352 51.2573L50.3203 47.4736V47.4207L55.4083 51.2573H55.352Z" fill="#4C6B95"/>
<path d="M55.2824 51.2573L50.3203 47.5167V47.4769L55.3553 51.2573H55.2824Z" fill="#4B6A95"/>
<path d="M55.2262 51.2573L50.3237 47.5729V47.5166L55.2825 51.2573H55.2262Z" fill="#4B6995"/>
<path d="M55.1534 51.2573L50.3237 47.6159V47.5729L55.2262 51.2573H55.1534Z" fill="#496894"/>
<path d="M55.097 51.2573L50.3237 47.6689V47.616L55.1534 51.2573H55.097Z" fill="#486793"/>
<path d="M55.0241 51.2574L50.3203 47.7153V47.6689L55.0969 51.2574H55.0241Z" fill="#476694"/>
<path d="M54.9677 51.2573L50.3203 47.7682V47.7119L55.0241 51.254H54.9677V51.2573Z" fill="#466692"/>
<path d="M54.8982 51.2573L50.3203 47.8112V47.7682L54.9677 51.2573H54.8982Z" fill="#456592"/>
<path d="M54.8386 51.2573L50.3203 47.851V47.8113L54.8982 51.254H54.8386V51.2573Z" fill="#446491"/>
<path d="M54.7691 51.2573L50.3237 47.9072V47.851L54.8387 51.2573H54.7691Z" fill="#436391"/>
<path d="M54.7128 51.2573L50.3237 47.947V47.9072L54.7691 51.2573H54.7128Z" fill="#426290"/>
<path d="M54.6398 51.2574L50.3203 48.0066V47.9503L54.7127 51.2574H54.6398Z" fill="#41618F"/>
<path d="M54.5835 51.2574L50.3203 48.0463V48.0066L54.6398 51.2574H54.5835Z" fill="#40618E"/>
<path d="M54.5107 51.2573L50.3237 48.1025V48.0463L54.5836 51.2573H54.5107Z" fill="#3F608E"/>
<path d="M54.4576 51.2573L50.3203 48.1456V48.1025L54.5106 51.2573H54.4543H54.4576Z" fill="#3E5F8C"/>
<path d="M54.3849 51.2574L50.3237 48.2019V48.1456L54.4544 51.2574H54.3849Z" fill="#3C5D8D"/>
<path d="M54.3252 51.2574L50.3237 48.2449V48.2019L54.3849 51.2574H54.3252Z" fill="#3C5D8C"/>
<path d="M54.2556 51.2573L50.3203 48.2979V48.2416L54.3284 51.254H54.2556V51.2573Z" fill="#3C5C8A"/>
<path d="M54.1828 51.2573L50.3237 48.3409V48.2979L54.2557 51.2573H54.1828Z" fill="#3B5C8A"/>
<path d="M54.1264 51.2574L50.3203 48.3972V48.3409L54.1827 51.254H54.1264V51.2574Z" fill="#395B8A"/>
<path d="M54.0569 51.2574L50.3237 48.4369V48.3972L54.1265 51.2574H54.0569Z" fill="#385A8A"/>
<path d="M54.0005 51.2573L50.3236 48.4932V48.4369L54.0568 51.2573H54.0005ZM50.3203 48.4965L54.0005 51.2573H50.3203V48.4965Z" fill="#365989"/>
</g>
</g>
<g style="mix-blend-mode:multiply">
<mask id="mask3_32_85" style="mask-type:luminance" maskUnits="userSpaceOnUse" x="41" y="52" width="10" height="10">
<g style="mix-blend-mode:multiply">
<path d="M43.682 61.8042C43.682 61.8042 43.109 57.4544 41.8999 52.33C41.8999 52.33 44.1193 53.4886 46.4877 55.3026C47.7266 56.266 48.982 57.3153 50.1348 58.57L48.356 59.5465C48.356 59.5465 47.6438 59.9239 46.9316 60.2748C46.544 60.4668 46.1333 60.6621 45.8053 60.8177L44.7487 61.3043L43.6655 61.7942L43.682 61.8042Z" fill="white"/>
</g>
</mask>
<g mask="url(#mask3_32_85)">
<path d="M50.1215 58.5567L49.194 59.0731L48.4255 59.5035L47.4715 59.9934L43.7515 52.4723H50.1215V58.5567ZM47.8425 60.8574L47.8126 60.8706L43.7217 52.4723H43.7515L47.8425 60.8574ZM47.8126 60.8706L47.7961 60.8872L43.6919 52.4723H43.7217L47.8126 60.8706Z" fill="white"/>
<path d="M47.7995 60.8872L47.7664 60.9004L43.6489 52.4723H43.692L47.7995 60.8872Z" fill="#FEFEFF"/>
<path d="M47.7665 60.9004L47.74 60.9137L43.6226 52.4723H43.6491L47.7665 60.9004Z" fill="#FDFDFE"/>
<path d="M47.74 60.9137L47.7102 60.9269L43.5928 52.4723H43.6226L47.74 60.9137Z" fill="#FCFDFE"/>
<path d="M47.7137 60.9269L47.6838 60.9435L43.5664 52.469H43.5962L47.7137 60.9269Z" fill="#FBFCFD"/>
<path d="M47.6835 60.9435L47.6569 60.9567L43.5229 52.4723H43.566L47.6835 60.9435Z" fill="#FAFBFC"/>
<path d="M47.657 60.9567H47.6404L43.4932 52.469H43.5263L47.657 60.9567Z" fill="#F9FAFC"/>
<path d="M47.6439 60.9567L47.6107 60.9699L43.4668 52.4723H43.4933L47.6405 60.9567H47.6439Z" fill="#F8F9FB"/>
<path d="M47.6141 60.9699L47.5843 60.9832L43.437 52.4723H43.4668L47.6141 60.9699Z" fill="#F7F8FB"/>
<path d="M47.5843 60.9832L47.5545 60.9964L43.4072 52.4723H43.437L47.5843 60.9832Z" fill="#F5F8FA"/>
<path d="M47.5546 60.9964L47.5248 61.013L43.3643 52.4723H43.4073L47.5546 60.9964Z" fill="#F4F6F8"/>
<path d="M47.5282 61.0097L47.5116 61.0262L43.3379 52.4723H43.3644L47.5282 61.0097Z" fill="#F3F5F8"/>
<path d="M47.5113 61.0262L47.4848 61.0395L43.311 52.4723H43.3375L47.5113 61.0262Z" fill="#F2F4F7"/>
<path d="M47.4848 61.0395H47.455L43.2812 52.4723H43.3078L47.4815 61.0395H47.4848Z" fill="#F1F3F7"/>
<path d="M47.4551 61.0395L47.4286 61.0527L43.2383 52.4723H43.2813L47.4551 61.0395Z" fill="#F0F2F6"/>
<path d="M47.4287 61.0527L47.4022 61.0693L43.2119 52.4723H43.2384L47.4287 61.0527Z" fill="#EFF2F5"/>
<path d="M47.4023 61.0693L47.3691 61.0825L43.1821 52.4723H43.2086L47.3989 61.0693H47.4023Z" fill="#EEF1F5"/>
<path d="M47.3691 61.0825L47.3558 61.0957L43.1489 52.4723H43.1821L47.3691 61.0825Z" fill="#EDF0F4"/>
<path d="M47.3559 61.0957L47.3261 61.109L43.1226 52.469H43.1524L47.3559 61.0957Z" fill="#ECEFF4"/>
<path d="M47.3291 61.109L47.2993 61.1222L43.0825 52.4723H43.1256L47.3291 61.1123V61.109Z" fill="#EBEEF3"/>
<path d="M47.2994 61.1222L47.2695 61.1388L43.0527 52.4723H43.0792L47.2994 61.1222Z" fill="#EAEDF4"/>
<path d="M47.2696 61.1355H47.2431L43.0229 52.4723H43.0528L47.2696 61.1355Z" fill="#E9EDF3"/>
<path d="M47.2398 61.1355L47.2265 61.152L42.9932 52.4723H43.023L47.2398 61.1355Z" fill="#E8ECF1"/>
<path d="M47.2301 61.152L47.2002 61.1653L42.9536 52.4723H42.9967L47.2301 61.152Z" fill="#E8EBF2"/>
<path d="M47.197 61.1653L47.1705 61.1785L42.9238 52.4723H42.9503L47.197 61.1653Z" fill="#E6EAF0"/>
<path d="M47.1705 61.1785L47.1407 61.1917L42.894 52.4723H42.9239L47.1705 61.1785Z" fill="#E5E9F1"/>
<path d="M47.1403 61.1918L47.1138 61.2083L42.8672 52.469H42.8937L47.1403 61.1918Z" fill="#E4E8F0"/>
<path d="M47.1139 61.2083L47.0874 61.2215L42.8242 52.4723H42.8673L47.1139 61.2083Z" fill="#E4E8EF"/>
<path d="M47.0875 61.2215H47.071L42.7979 52.4723H42.8244L47.0875 61.2215Z" fill="#E3E7EF"/>
<path d="M47.071 61.2215L47.0445 61.2348L42.7681 52.4723H42.7946L47.071 61.2215Z" fill="#E1E6ED"/>
<path d="M47.0441 61.2348L47.0143 61.248L42.7412 52.4723H42.7677L47.0441 61.2348Z" fill="#E0E5ED"/>
<path d="M47.0178 61.248L46.988 61.2646L42.7148 52.4723H42.7413L47.0145 61.248H47.0178Z" fill="#DEE4EC"/>
<path d="M46.9846 61.2613L46.9581 61.2778L42.6685 52.4723H42.7115L46.9846 61.2613Z" fill="#DEE3EB"/>
<path d="M46.9548 61.2745L46.9415 61.291L42.6353 52.4723H42.6684L46.9548 61.2745Z" fill="#DDE3EB"/>
<path d="M46.9383 61.291L46.9118 61.3043L42.6089 52.4723H42.6387L46.9383 61.291Z" fill="#DCE2EA"/>
<path d="M46.9152 61.3076L46.8854 61.3175L42.5791 52.4723H42.6122L46.9152 61.3043V61.3076Z" fill="#DBE1EA"/>
<path d="M46.8856 61.3175H46.8557L42.5396 52.4723H42.5793L46.8856 61.3175Z" fill="#DAE0E9"/>
<path d="M46.8558 61.3175L46.8293 61.3341L42.5098 52.4723H42.5396L46.8558 61.3175Z" fill="#D9DFE8"/>
<path d="M46.8289 61.3308L46.8157 61.3473L42.4829 52.4723H42.5127L46.8289 61.3308Z" fill="#D8DEE8"/>
<path d="M46.8157 61.3473L46.7826 61.3606L42.4531 52.4723H42.4829L46.8157 61.3473Z" fill="#D7DDE7"/>
<path d="M46.786 61.3606L46.7595 61.3738L42.4102 52.469H42.4532L46.786 61.3606ZM46.7562 61.3738L46.7297 61.3871L42.3804 52.4723L42.4102 52.469L46.7562 61.3738Z" fill="#D6DCE6"/>
<path d="M46.7298 61.3871L46.7 61.4036L42.354 52.4723H42.3805L46.7298 61.3871Z" fill="#D4DBE5"/>
<path d="M46.703 61.4036H46.6731L42.3271 52.4723H42.357L46.703 61.4036Z" fill="#D4DAE5"/>
<path d="M46.6732 61.4036L46.6566 61.4168L42.2974 52.4723H42.3239L46.6732 61.4036Z" fill="#D2D9E4"/>
<path d="M46.6601 61.4168L46.6303 61.4301L42.2578 52.4723H42.2976L46.6601 61.4168Z" fill="#D1D9E5"/>
<path d="M46.6303 61.4301L46.6005 61.4433L42.228 52.4723H42.2545L46.6303 61.4301Z" fill="#D1D8E3"/>
<path d="M46.6006 61.4433L46.5707 61.4599L42.1982 52.4723H42.2247L46.6006 61.4433Z" fill="#D0D7E2"/>
<path d="M46.5742 61.4599L46.5444 61.4731L42.1719 52.469H42.1984L46.5709 61.4599H46.5742Z" fill="#CFD6E2"/>
<path d="M46.5409 61.4731L46.5277 61.4864L42.1221 52.4723H42.1684L46.5409 61.4731Z" fill="#CDD5E1"/>
<path d="M46.5278 61.4864L46.5013 61.4996L42.0957 52.4723H42.1255L46.5311 61.4864H46.5278Z" fill="#CCD4E1"/>
<path d="M46.5014 61.4996H46.4715L42.0659 52.4723H42.099L46.5014 61.4996Z" fill="#CCD4E0"/>
<path d="M46.4745 61.4996L46.4414 61.5128L42.0391 52.4723H42.0689L46.4745 61.4996Z" fill="#CAD3DE"/>
<path d="M46.4415 61.5128L46.415 61.5294L41.9961 52.4723H42.0392L46.4415 61.5128Z" fill="#C9D2DF"/>
<path d="M46.4151 61.5294L46.3886 61.5426L41.9697 52.4723H41.9995L46.4151 61.5294Z" fill="#C8D1DE"/>
<path d="M46.3882 61.5393L46.375 61.5559L41.9429 52.4723H41.9694L46.3882 61.5393Z" fill="#C7D0DE"/>
<path d="M46.3752 61.5559L46.3421 61.5691L41.7974 52.3002L42.1551 52.4293L46.3719 61.5559H46.3752Z" fill="#C7CFDD"/>
<path d="M46.342 61.5724L46.3155 61.5824L41.8999 52.512V52.4723H41.9132L46.3453 61.5691L46.342 61.5724Z" fill="#C5CFDC"/>
<path d="M46.3155 61.5824H46.289L41.8999 52.5816V52.5154L46.3155 61.5824Z" fill="#C5CEDC"/>
<path d="M46.289 61.5824L46.2592 61.5989L41.8999 52.651V52.5848L46.289 61.5824Z" fill="#C4CDDB"/>
<path d="M46.2595 61.599L46.2463 61.6122L41.897 52.7074V52.6511L46.2595 61.599Z" fill="#C3CCDB"/>
<path d="M46.2426 61.6122L46.2161 61.6254L41.8999 52.7769V52.7107L46.2459 61.6122H46.2426Z" fill="#C2CCDA"/>
<path d="M46.2165 61.6254L46.19 61.6386L41.897 52.8464V52.7802L46.2165 61.6254Z" fill="#C0CBDA"/>
<path d="M46.1896 61.6387L46.1565 61.6553L41.8999 52.9027V52.8464L46.1896 61.6387Z" fill="#C0CAD9"/>
<path d="M46.1598 61.6552L46.13 61.6685L41.8999 52.9722V52.906L46.1598 61.6552Z" fill="#BFCAD9"/>
<path d="M46.1303 61.6684L46.1171 61.6817L41.897 53.0417V52.9755L46.1303 61.6684Z" fill="#BEC9D9"/>
<path d="M46.1171 61.6817H46.0873L41.9036 53.098V53.0417L46.1204 61.6817H46.1171ZM46.0873 61.6817L46.0608 61.695L41.9003 53.1675V53.1013L46.0873 61.6817ZM46.0608 61.695L46.031 61.7082L41.897 53.2404V53.1675L46.0608 61.695Z" fill="#BCC7D7"/>
<path d="M46.031 61.7082L46.0045 61.7248L41.897 53.2933V53.2371L46.031 61.7082Z" fill="#BAC5D5"/>
<path d="M46.0041 61.7248L45.9743 61.738L41.8999 53.3628V53.2966L46.0041 61.7248Z" fill="#B9C4D6"/>
<path d="M45.9743 61.738L45.961 61.7512L41.8999 53.4356V53.3628L45.9743 61.738Z" fill="#B8C4D5"/>
<path d="M45.961 61.7513L45.9312 61.7645L41.8999 53.4886V53.4324L45.961 61.7513Z" fill="#B7C3D5"/>
<path d="M45.9313 61.7645H45.9015L41.9033 53.5614V53.4952L45.9346 61.7711L45.9313 61.7645Z" fill="#B6C1D3"/>
<path d="M45.9014 61.7644L45.8749 61.7777L41.8999 53.6309V53.5614L45.9014 61.7644Z" fill="#B4C0D2"/>
<path d="M45.8749 61.7777L45.8451 61.7943L41.8999 53.6839V53.631L45.8749 61.7777Z" fill="#B3C0D2"/>
<path d="M45.8455 61.7943V61.8075H45.819L41.897 53.7535V53.6873L45.8455 61.7943Z" fill="#B2BFD1"/>
<path d="M45.7892 61.8042L41.897 53.8262V53.7534L45.819 61.8075L45.7892 61.8042Z" fill="#B1BED1"/>
<path d="M45.759 61.8042L41.8999 53.8793V53.8263L45.7888 61.8042H45.759Z" fill="#B0BDD0"/>
<path d="M45.7325 61.8042L41.8999 53.9488V53.8826L45.759 61.8075L45.7325 61.8042Z" fill="#AFBCCF"/>
<path d="M45.6894 61.8042L41.8999 54.0215V53.952L45.7325 61.8075L45.6894 61.8042Z" fill="#AEBBCE"/>
<path d="M45.66 61.8042L41.897 54.0746V54.0216L45.6898 61.8075L45.66 61.8042Z" fill="#ADBBCE"/>
<path d="M45.6331 61.8042L41.8999 54.1441V54.0779L45.6596 61.8075L45.6331 61.8042Z" fill="#ACBACE"/>
<path d="M45.6033 61.8042L41.8999 54.2169V54.1473L45.6331 61.8075L45.6033 61.8042Z" fill="#ABB9CD"/>
<path d="M45.5602 61.8042L41.8999 54.2699V54.2169L45.6033 61.8075L45.5602 61.8042Z" fill="#AAB8CC"/>
<path d="M45.5341 61.8042L41.897 54.3394V54.2732L45.5606 61.8075L45.5341 61.8042Z" fill="#A9B7CC"/>
<path d="M45.5039 61.8042L41.8999 54.4122V54.3427L45.5337 61.8075L45.5039 61.8042Z" fill="#A9B6CB"/>
<path d="M45.4745 61.8042L41.897 54.4652V54.4122L45.5043 61.8075L45.4745 61.8042Z" fill="#A8B7CB"/>
<path d="M45.448 61.8041L41.897 54.5379V54.4651L45.4745 61.8074L45.448 61.8041Z" fill="#A7B6CA"/>
<path d="M45.4049 61.8042L41.897 54.6075V54.538L45.448 61.8075L45.4049 61.8042Z" fill="#A5B4C9"/>
<path d="M45.3751 61.8041L41.897 54.6604V54.6074L45.4049 61.8074L45.3751 61.8041Z" fill="#A4B3C9"/>
<path d="M45.3482 61.8042L41.8999 54.7333V54.6638L45.378 61.8075H45.3449L45.3482 61.8042Z" fill="#A4B2C8"/>
<path d="M45.3184 61.8042L41.8999 54.8028V54.7333L45.3449 61.8075L45.3184 61.8042Z" fill="#A3B2C8"/>
<path d="M45.2757 61.8041L41.897 54.8557V54.8027L45.3188 61.8074L45.2757 61.8041Z" fill="#A2B2C7"/>
<path d="M45.2488 61.8042L41.8999 54.9286V54.8591L45.2787 61.8075H45.2455L45.2488 61.8042Z" fill="#A1B1C7"/>
<path d="M45.2161 61.8042L41.897 54.9981V54.9286L45.2459 61.8075H45.2194L45.2161 61.8042Z" fill="#A0B0C6"/>
<path d="M45.1892 61.8041L41.8999 55.051V54.998L45.219 61.8074L45.1892 61.8041Z" fill="#9EAEC4"/>
<path d="M45.1498 61.8041L41.897 55.1238V55.0543L45.1896 61.8074H45.1465L45.1498 61.8041Z" fill="#9DADC5"/>
<path d="M45.1163 61.8042L41.8999 55.1934V55.1239L45.1462 61.8075H45.1197L45.1163 61.8042Z" fill="#9CABC3"/>
<path d="M45.0898 61.8041L41.8999 55.2496V55.1934L45.1197 61.8074L45.0898 61.8041Z" fill="#9BACC3"/>
<path d="M45.0633 61.8041L41.8999 55.3158V55.2496L45.0898 61.8041H45.0633Z" fill="#99ABC3"/>
<path d="M45.0339 61.8042L41.897 55.3887V55.3192L45.0637 61.8075L45.0339 61.8042Z" fill="#98AAC2"/>
<path d="M44.9908 61.8041L41.897 55.4449V55.3887L45.0339 61.8074L44.9908 61.8041Z" fill="#97A9C2"/>
<path d="M44.961 61.8041L41.897 55.5145V55.4449L44.9908 61.8074L44.961 61.8041Z" fill="#97A8C1"/>
<path d="M44.9342 61.8042L41.8999 55.5807V55.5145L44.964 61.8042H44.9342Z" fill="#96A7C1"/>
<path d="M44.9043 61.8041L41.8999 55.6403V55.584L44.9342 61.8074L44.9043 61.8041Z" fill="#95A6C0"/>
<path d="M44.8613 61.8041L41.8999 55.7098V55.6403L44.9043 61.8074L44.8613 61.8041Z" fill="#94A6BF"/>
<path d="M44.8348 61.8042L41.8999 55.7794V55.7098L44.8613 61.8075L44.8348 61.8042Z" fill="#93A5BF"/>
<path d="M44.805 61.8041L41.8999 55.8356V55.7793L44.8348 61.8041H44.805Z" fill="#92A4BE"/>
<path d="M44.7788 61.8041L41.897 55.9051V55.8356L44.8053 61.8074L44.7788 61.8041Z" fill="#91A4BF"/>
<path d="M44.7487 61.8042L41.8999 55.9747V55.9052L44.7785 61.8075L44.7487 61.8042Z" fill="#90A2BD"/>
<path d="M44.706 61.8041L41.897 56.0441V55.9746L44.749 61.8074L44.706 61.8041Z" fill="#8FA1BC"/>
<path d="M44.6758 61.8042L41.8999 56.1005V56.0442L44.7056 61.8042H44.6758Z" fill="#8EA2BD"/>
<path d="M44.6493 61.8042L41.8999 56.17V56.1005L44.6758 61.8075L44.6493 61.8042Z" fill="#8DA0BB"/>
<path d="M44.6198 61.8041L41.897 56.2394V56.1699L44.6463 61.8074L44.6198 61.8041Z" fill="#8C9FBC"/>
<path d="M44.5768 61.8042L41.897 56.2958V56.2395L44.6198 61.8075L44.5768 61.8042Z" fill="#8B9EBB"/>
<path d="M44.5499 61.8042L41.8999 56.3653V56.2958L44.5764 61.8075L44.5499 61.8042Z" fill="#8A9DBA"/>
<path d="M44.5201 61.8041L41.8999 56.4348V56.3652L44.5499 61.8074L44.5201 61.8041Z" fill="#899DBA"/>
<path d="M44.4903 61.8042L41.8999 56.4911V56.4348L44.5201 61.8075H44.4936L44.4903 61.8042Z" fill="#889DB9"/>
<path d="M44.4505 61.8042L41.8999 56.5606V56.4911L44.4936 61.8075L44.4505 61.8042Z" fill="#879CB9"/>
<path d="M44.4207 61.8041L41.8999 56.6301V56.5605L44.4505 61.8074L44.4207 61.8041Z" fill="#869BB9"/>
<path d="M44.3909 61.8042L41.8999 56.6864V56.6301L44.4207 61.8075L44.3909 61.8042Z" fill="#859AB7"/>
<path d="M44.3648 61.8042L41.897 56.7559V56.6864L44.3913 61.8075L44.3648 61.8042Z" fill="#8599B7"/>
<path d="M44.335 61.8041L41.897 56.8254V56.7559L44.3648 61.8074L44.335 61.8041Z" fill="#8398B6"/>
<path d="M44.2919 61.8042L41.897 56.8817V56.8254L44.335 61.8075L44.2919 61.8042Z" fill="#8298B6"/>
<path d="M44.265 61.8042L41.8999 56.9512V56.8817L44.2915 61.8075L44.265 61.8042Z" fill="#8196B4"/>
<path d="M44.2352 61.8041L41.8999 57.0207V56.9512L44.265 61.8074L44.2352 61.8041Z" fill="#7F95B3"/>
<path d="M44.2058 61.8042L41.897 57.077V57.0208L44.2356 61.8075H44.2091L44.2058 61.8042Z" fill="#7E94B3"/>
<path d="M44.1657 61.8042L41.8999 57.1465V57.077L44.2087 61.8075L44.1657 61.8042ZM44.1358 61.8042L41.8999 57.2161V57.1465L44.1657 61.8042H44.1358Z" fill="#7E93B2"/>
<path d="M44.106 61.8042L41.8999 57.269V57.2161L44.1358 61.8075L44.106 61.8042Z" fill="#7C92B1"/>
<path d="M44.0799 61.8042L41.897 57.3419V57.269L44.1064 61.8042H44.0799Z" fill="#7B91B0"/>
<path d="M44.0368 61.8041L41.897 57.4113V57.3418L44.0799 61.8074L44.0368 61.8041Z" fill="#7A90B0"/>
<path d="M44.0067 61.8042L41.8999 57.4677V57.4114L44.0365 61.8075L44.0067 61.8042Z" fill="#798FAF"/>
<path d="M43.9802 61.8042L41.8999 57.5339V57.4677L44.0067 61.8042H43.9802Z" fill="#788FAF"/>
<path d="M43.9507 61.8041L41.897 57.6066V57.5371L43.9805 61.8075L43.9507 61.8041Z" fill="#778EAE"/>
<path d="M43.9238 61.8042L41.8999 57.663V57.6067L43.9503 61.8075H43.9205L43.9238 61.8042Z" fill="#768DAD"/>
<path d="M43.8778 61.8042L41.897 57.7325V57.663L43.9209 61.8075L43.8778 61.8042Z" fill="#758DAE"/>
<path d="M43.8513 61.8041L41.897 57.8019V57.7324L43.8778 61.8041H43.8513Z" fill="#748CAD"/>
<path d="M43.8248 61.8042L41.897 57.8583V57.802L43.8513 61.8075H43.8215L43.8248 61.8042Z" fill="#738AAD"/>
<path d="M43.7917 61.8042L41.897 57.9278V57.8583L43.8215 61.8075H43.795L43.7917 61.8042Z" fill="#7189AC"/>
<path d="M43.752 61.8041L41.897 57.9973V57.9277L43.795 61.8075L43.752 61.8041Z" fill="#7088AC"/>
<path d="M43.7251 61.8042L41.8999 58.0536V57.9973L43.7516 61.8042H43.7251Z" fill="#7089AA"/>
<path d="M43.692 61.8042L41.8999 58.1231V58.0536L43.7218 61.8075H43.6953L43.692 61.8042Z" fill="#6F88AA"/>
<path d="M43.6658 61.8041L41.897 58.1926V58.123L43.6957 61.8075L43.6658 61.8041Z" fill="#6F87AA"/>
<path d="M43.6257 61.8042L41.8999 58.2489V58.1926L43.6655 61.8075H43.6224L43.6257 61.8042Z" fill="#6C85A8"/>
<path d="M43.5926 61.8042L41.8999 58.3184V58.2489L43.6224 61.8075H43.5959L43.5926 61.8042Z" fill="#6C85A9"/>
<path d="M43.5661 61.8042L41.8999 58.3879V58.3184L43.5959 61.8075H43.5628L43.5661 61.8042Z" fill="#6A84A7"/>
<path d="M43.5367 61.8042L41.897 58.4442V58.3879L43.5665 61.8075L43.5367 61.8042Z" fill="#6A84A7"/>
<path d="M43.5098 61.8042L41.8999 58.5137V58.4442L43.5363 61.8075L43.5098 61.8042Z" fill="#6A83A6"/>
<path d="M43.4667 61.8042L41.8999 58.5832V58.5137L43.5098 61.8075L43.4667 61.8042Z" fill="#6882A5"/>
<path d="M43.4369 61.8042L41.8999 58.6395V58.5833L43.4667 61.8075L43.4369 61.8042Z" fill="#6781A6"/>
<path d="M43.4108 61.8042L41.897 58.709V58.6395L43.4373 61.8075L43.4108 61.8042Z" fill="#6680A5"/>
<path d="M43.3806 61.8042L41.8999 58.7785V58.709L43.4104 61.8075H43.3773L43.3806 61.8042Z" fill="#657EA3"/>
<path d="M43.3375 61.8042L41.8999 58.8348V58.7786L43.3806 61.8075L43.3375 61.8042Z" fill="#647FA4"/>
<path d="M43.3077 61.8042L41.8999 58.9044V58.8348L43.3375 61.8075L43.3077 61.8042Z" fill="#637EA3"/>
<path d="M43.2816 61.8042L41.897 58.9738V58.9043L43.3081 61.8075L43.2816 61.8042Z" fill="#637DA2"/>
<path d="M43.2518 61.8042L41.897 59.0302V58.9739L43.2816 61.8075L43.2518 61.8042Z" fill="#627CA2"/>
<path d="M43.2249 61.8042L41.8999 59.0997V59.0302L43.2514 61.8075L43.2249 61.8042Z" fill="#617BA1"/>
<path d="M43.1818 61.8041L41.8999 59.1691V59.1029L43.2249 61.8075L43.1818 61.8041Z" fill="#5F7AA1"/>
<path d="M43.152 61.8042L41.8999 59.2255V59.1692L43.1818 61.8075L43.152 61.8042Z" fill="#5E7AA0"/>
<path d="M43.1226 61.8042L41.897 59.295V59.2255L43.1557 61.8075L43.1226 61.8042Z" fill="#5D79A0"/>
<path d="M43.0957 61.8041L41.8999 59.3644V59.2982L43.1255 61.8075H43.0924L43.0957 61.8041Z" fill="#5C789F"/>
<path d="M43.0527 61.8042L41.8999 59.4208V59.3645L43.0924 61.8075L43.0527 61.8042Z" fill="#5B769E"/>
<path d="M43.0232 61.8042L41.897 59.4903V59.4208L43.053 61.8042H43.0232Z" fill="#5A769E"/>
<path d="M42.9967 61.8042L41.897 59.5597V59.4935L43.0232 61.8075L42.9967 61.8042Z" fill="#5A759D"/>
<path d="M42.9665 61.8042L41.8999 59.6161V59.5598L42.993 61.8075L42.9665 61.8042Z" fill="#58759E"/>
<path d="M42.9238 61.8042L41.897 59.6856V59.6161L42.9669 61.8075L42.9238 61.8042Z" fill="#57749C"/>
<path d="M42.897 61.8042L41.8999 59.7551V59.6888L42.9268 61.8075H42.8937L42.897 61.8042Z" fill="#56739B"/>
<path d="M42.8675 61.8042L41.897 59.8114V59.7551L42.8973 61.8075L42.8675 61.8042Z" fill="#55729B"/>
<path d="M42.8377 61.8042L41.897 59.8842V59.8114L42.8675 61.8075L42.8377 61.8042Z" fill="#55719A"/>
<path d="M42.8108 61.8042L41.8999 59.9504V59.8842L42.8407 61.8042H42.8108Z" fill="#53709A"/>
<path d="M42.7678 61.8042L41.8999 60.0067V59.9504L42.8108 61.8042H42.7678Z" fill="#537099"/>
<path d="M42.738 61.8042L41.8999 60.0762V60.01L42.7678 61.8075L42.738 61.8042Z" fill="#506F98"/>
<path d="M42.7115 61.8042L41.8999 60.149V60.0762L42.738 61.8075L42.7115 61.8042Z" fill="#506E98"/>
<path d="M42.6817 61.8042L41.8999 60.202V60.1458L42.7115 61.8075L42.6817 61.8042Z" fill="#4F6D97"/>
<path d="M42.6386 61.8042L41.8999 60.2715V60.2053L42.6817 61.8075L42.6386 61.8042Z" fill="#4E6C97"/>
<path d="M42.6125 61.8042L41.897 60.341V60.2748L42.639 61.8075L42.6125 61.8042Z" fill="#4E6B96"/>
<path d="M42.5827 61.8041L41.897 60.3972V60.3409L42.6125 61.8074L42.5827 61.8041Z" fill="#4C6B95"/>
<path d="M42.5525 61.8042L41.8999 60.4668V60.4006L42.5823 61.8075L42.5525 61.8042Z" fill="#4B6A95"/>
<path d="M42.5127 61.8042L41.8999 60.5363V60.4701L42.5525 61.8075L42.5127 61.8042Z" fill="#4B6995"/>
<path d="M42.4829 61.8041L41.8999 60.5925V60.5363L42.5127 61.8074H42.4796L42.4829 61.8041Z" fill="#496894"/>
<path d="M42.4535 61.8042L41.897 60.6622V60.5959L42.4833 61.8075L42.4535 61.8042Z" fill="#486793"/>
<path d="M42.427 61.8042L41.897 60.7316V60.6654L42.4535 61.8075L42.427 61.8042Z" fill="#476694"/>
<path d="M42.4005 61.8041L41.897 60.7878V60.7316L42.427 61.8074H42.3972L42.4005 61.8041Z" fill="#466692"/>
<path d="M42.3537 61.8042L41.8999 60.8575V60.7913L42.3968 61.8075L42.3537 61.8042Z" fill="#456592"/>
<path d="M42.3276 61.8042L41.897 60.9269V60.8607L42.3541 61.8075L42.3276 61.8042Z" fill="#446491"/>
<path d="M42.2974 61.8041L41.8999 60.9832V60.9269L42.3272 61.8074L42.2974 61.8041Z" fill="#436391"/>
<path d="M42.2676 61.8042L41.8999 61.0528V60.9866L42.2974 61.8075L42.2676 61.8042Z" fill="#426290"/>
<path d="M42.2282 61.8042L41.897 61.1222V61.056L42.268 61.8075L42.2282 61.8042Z" fill="#41618F"/>
<path d="M42.198 61.8041L41.8999 61.1785V61.1222L42.2278 61.8074H42.1947L42.198 61.8041Z" fill="#40618E"/>
<path d="M42.1686 61.8042L41.897 61.2481V61.1819L42.1951 61.8075L42.1686 61.8042Z" fill="#3F608E"/>
<path d="M42.1417 61.8042L41.8999 61.3176V61.2513L42.1682 61.8075L42.1417 61.8042Z" fill="#3E5F8C"/>
<path d="M42.0987 61.8041L41.8999 61.3738V61.3175L42.1417 61.8074L42.0987 61.8041Z" fill="#3C5D8D"/>
<path d="M42.0688 61.8042L41.8999 61.4434V61.3772L42.0987 61.8075L42.0688 61.8042Z" fill="#3C5D8C"/>
<path d="M42.0423 61.8108L41.8999 61.5129V61.4467L42.0722 61.8108H42.039H42.0423Z" fill="#3C5C8A"/>
<path d="M42.0125 61.8107L41.8999 61.5691V61.5128L42.0423 61.8107H42.0125Z" fill="#3B5C8A"/>
<path d="M41.9864 61.8074L41.897 61.6419V61.5691L42.0129 61.8074H41.9864Z" fill="#395B8A"/>
<path d="M41.9433 61.8141L41.897 61.7148V61.6387L41.9864 61.8141H41.9433Z" fill="#385A8A"/>
<path d="M41.9135 61.8108L41.897 61.7677V61.7081L41.9433 61.8108H41.9135Z" fill="#365989"/>
<path d="M41.9003 61.7644L41.9135 61.8141H41.897V61.7644H41.9003Z" fill="#365989"/>
</g>
</g>
<g style="mix-blend-mode:multiply">
<mask id="mask4_32_85" style="mask-type:luminance" maskUnits="userSpaceOnUse" x="29" y="29" width="13" height="11">
<g style="mix-blend-mode:multiply">
<path d="M41.6415 39.5752C40.3165 39.115 38.9186 38.7244 37.3816 38.3205C34.8886 37.6685 32.3558 37.1786 29.7993 36.854C29.8854 34.4143 29.9153 32.6565 30.1968 30.1837C30.1968 29.9487 30.2564 29.6673 30.2697 29.515C30.2697 29.515 31.4953 29.6143 32.8634 29.8924C35.89 30.5363 38.9069 31.2249 41.9131 31.958L41.8005 32.9048C41.8005 32.9048 41.7011 34.8579 41.6846 34.9009L41.6283 36.6587C41.6283 37.0924 41.615 37.5393 41.615 37.9729C41.615 38.5026 41.6283 39.019 41.6283 39.5487L41.6415 39.5752Z" fill="white"/>
</g>
</mask>
<g mask="url(#mask4_32_85)">
<path d="M41.9131 35.3776L29.7993 32.054V29.5282H41.9131V35.3776Z" fill="white"/>
<path d="M41.9131 35.404L29.7993 32.0838V32.054L41.9131 35.3775V35.404Z" fill="white"/>
<path d="M41.9131 35.447L29.7993 32.1235V32.0837L41.9131 35.404V35.447Z" fill="white"/>
<path d="M41.9131 35.4868L29.7993 32.1666V32.1235L41.9131 35.4471V35.4868Z" fill="#FEFEFF"/>
<path d="M41.9131 35.5298L29.7993 32.2095V32.1665L41.9131 35.4868V35.5298Z" fill="#FDFDFE"/>
<path d="M41.9131 35.5729L29.7993 32.2493V32.2096L41.9131 35.5299V35.5729Z" fill="#FCFDFE"/>
<path d="M41.9131 35.5993L29.7993 32.2791V32.2493L41.9131 35.5729V35.5993Z" fill="#FBFCFD"/>
<path d="M41.9131 35.6424L29.7993 32.3188V32.2791L41.9131 35.5993V35.6424Z" fill="#FAFBFC"/>
<path d="M41.9131 35.6855L29.7993 32.3586V32.3156L41.9131 35.6391V35.6789V35.6855Z" fill="#F9FAFC"/>
<path d="M41.9131 35.7251L29.7993 32.4048V32.3618L41.9131 35.6821V35.7251Z" fill="#F8F9FB"/>
<path d="M41.9131 35.7682L29.7993 32.4413V32.4082L41.9131 35.7285V35.7682Z" fill="#F7F8FB"/>
<path d="M41.9131 35.8079L29.7993 32.4744V32.4413L41.9131 35.7649V35.8046V35.8079Z" fill="#F5F8FA"/>
<path d="M41.9131 35.8377L29.7993 32.5141V32.4744L41.9131 35.8079V35.8377Z" fill="#F4F6F8"/>
<path d="M41.9131 35.8775L29.7993 32.5572V32.5142L41.9131 35.8377V35.8775Z" fill="#F3F5F8"/>
<path d="M41.9131 35.9204L29.7993 32.6002V32.5571L41.9131 35.8774V35.9204Z" fill="#F2F4F7"/>
<path d="M41.9131 35.9635L29.7993 32.6399V32.6002L41.9131 35.9205V35.9635Z" fill="#F1F3F7"/>
<path d="M41.9131 36.0032L29.7993 32.673V32.6399L41.9131 35.9635V36.0032Z" fill="#F0F2F6"/>
<path d="M41.9131 36.033L29.7993 32.7061V32.673L41.9131 36.0065V36.033Z" fill="#EFF2F5"/>
<path d="M41.9131 36.0728L29.7993 32.7525V32.7095L41.9131 36.0331V36.0728Z" fill="#EEF1F5"/>
<path d="M41.9131 36.1158L29.7993 32.7955V32.7524L41.9131 36.0727V36.1158Z" fill="#EDF0F4"/>
<path d="M41.9131 36.1588L29.7993 32.8353V32.7955L41.9131 36.1158V36.1588Z" fill="#ECEFF4"/>
<path d="M41.9131 36.1985L29.7993 32.865V32.8352L41.9131 36.1588V36.1985Z" fill="#EBEEF3"/>
<path d="M41.9131 36.2283L29.7993 32.9047V32.865L41.9131 36.1985V36.2283Z" fill="#EAEDF4"/>
<path d="M41.9131 36.2681L29.7993 32.9478V32.9048L41.9131 36.2284V36.2681Z" fill="#E9EDF3"/>
<path d="M41.9131 36.3111L29.7993 32.9908V32.9478L41.9131 36.268V36.3111Z" fill="#E8ECF1"/>
<path d="M41.9131 36.3542L29.7993 33.0306V32.9908L41.9131 36.3111V36.3542Z" fill="#E8EBF2"/>
<path d="M41.9131 36.3938L29.7993 33.0603V33.0305L41.9131 36.3541V36.3938Z" fill="#E6EAF0"/>
<path d="M41.9131 36.4236L29.7993 33.1V33.0603L41.9131 36.3938V36.4236Z" fill="#E5E9F1"/>
<path d="M41.9131 36.4634L29.7993 33.1431V33.1001L41.9131 36.4237V36.4634Z" fill="#E4E8F0"/>
<path d="M41.9131 36.5064L29.7993 33.1861V33.1431L41.9131 36.4633V36.5064Z" fill="#E4E8EF"/>
<path d="M41.9131 36.5462L29.7993 33.2259V33.1862L41.9131 36.5064V36.5495V36.5462Z" fill="#E3E7EF"/>
<path d="M41.9131 36.5891L29.7993 33.2689V33.2258L41.9131 36.5494V36.5891Z" fill="#E1E6ED"/>
<path d="M41.9131 36.619L29.7993 33.2954V33.2689L41.9131 36.5892V36.619Z" fill="#E0E5ED"/>
<path d="M41.9131 36.6587L29.7993 33.3384V33.2954L41.9131 36.619V36.6587Z" fill="#DEE4EC"/>
<path d="M41.9131 36.7017L29.7993 33.3814V33.3384L41.9131 36.6587V36.7017Z" fill="#DEE3EB"/>
<path d="M41.9131 36.7448L29.7993 33.4212V33.3815L41.9131 36.7017V36.7448Z" fill="#DDE3EB"/>
<path d="M41.9131 36.7844L29.7993 33.4675V33.4244L41.9131 36.748V36.7844Z" fill="#DCE2EA"/>
<path d="M41.9131 36.8275L29.7993 33.4907V33.4642L41.9131 36.7845V36.8275Z" fill="#DBE1EA"/>
<path d="M41.9131 36.854L29.7993 33.5338V33.4907L41.9131 36.8276V36.854Z" fill="#DAE0E9"/>
<path d="M41.9131 36.897L29.7993 33.5767V33.5337L41.9131 36.854V36.897Z" fill="#D9DFE8"/>
<path d="M41.9131 36.9401L29.7993 33.6165V33.5768L41.9131 36.8971V36.9401Z" fill="#D8DEE8"/>
<path d="M41.9131 36.9798L29.7993 33.6595V33.6165L41.9131 36.94V36.9798Z" fill="#D7DDE7"/>
<path d="M41.9131 37.0229L29.7993 33.6893V33.6595L41.9131 36.9798V37.0229ZM41.9131 37.0493L29.7993 33.7324V33.6927L41.9131 37.0262V37.0493Z" fill="#D6DCE6"/>
<path d="M41.9131 37.0923L29.7993 33.772V33.729L41.9131 37.0493V37.0923Z" fill="#D4DBE5"/>
<path d="M41.9131 37.1354L29.7993 33.8118V33.7721L41.9131 37.0924V37.1354Z" fill="#D4DAE5"/>
<path d="M41.9131 37.1751L29.7993 33.8548V33.8118L41.9131 37.1354V37.1751Z" fill="#D2D9E4"/>
<path d="M41.9131 37.2182L29.7993 33.8813V33.8549L41.9131 37.1751V37.2182Z" fill="#D1D9E5"/>
<path d="M41.9131 37.2446L29.7993 33.9244V33.8846L41.9131 37.2182V37.2446Z" fill="#D1D8E3"/>
<path d="M41.9131 37.2876L29.7993 33.9673V33.9243L41.9131 37.2446V37.2876Z" fill="#D0D7E2"/>
<path d="M41.9131 37.3307L29.7993 34.0071V33.9674L41.9131 37.2877V37.3307Z" fill="#CFD6E2"/>
<path d="M41.9131 37.3737L29.7993 34.0501V34.0071L41.9131 37.3307V37.3704V37.3737Z" fill="#CDD5E1"/>
<path d="M41.9131 37.4135L29.7993 34.0767V34.0502L41.9131 37.3704V37.4135Z" fill="#CCD4E1"/>
<path d="M41.9131 37.44L29.7993 34.1197V34.0767L41.9131 37.4135V37.44Z" fill="#CCD4E0"/>
<path d="M41.9131 37.4829L29.7993 34.1627V34.1196L41.9131 37.4399V37.4829Z" fill="#CAD3DE"/>
<path d="M41.9131 37.526L29.7993 34.2024V34.1627L41.9131 37.483V37.526Z" fill="#C9D2DF"/>
<path d="M41.9131 37.5657L29.7993 34.2454V34.2024L41.9131 37.526V37.5657Z" fill="#C8D1DE"/>
<path d="M41.9131 37.6088L29.7993 34.2885V34.2455L41.9131 37.5658V37.6088Z" fill="#C7D0DE"/>
<path d="M41.9131 37.6385L29.7993 34.3149V34.2885L41.9131 37.6087V37.6385Z" fill="#C7CFDD"/>
<path d="M41.9131 37.6782L29.7993 34.3613V34.3182L41.9131 37.6418V37.6815V37.6782Z" fill="#C5CFDC"/>
<path d="M41.9131 37.7214L29.7993 34.3945V34.3547L41.9131 37.675V37.718V37.7214Z" fill="#C5CEDC"/>
<path d="M41.9131 37.761L29.7993 34.4407V34.3977L41.9131 37.7213V37.761Z" fill="#C4CDDB"/>
<path d="M41.9131 37.8041L29.7993 34.4838V34.4408L41.9131 37.7611V37.8041Z" fill="#C3CCDB"/>
<path d="M41.9131 37.8471L29.7993 34.5102V34.4838L41.9131 37.804V37.8471Z" fill="#C2CCDA"/>
<path d="M41.9131 37.8736L29.7993 34.5533V34.5103L41.9131 37.8471V37.8736Z" fill="#C0CBDA"/>
<path d="M41.9131 37.9167L29.7993 34.5931V34.5533L41.9131 37.8736V37.9167Z" fill="#C0CAD9"/>
<path d="M41.9131 37.9563L29.7993 34.636V34.5963L41.9131 37.9166V37.9563Z" fill="#BFCAD9"/>
<path d="M41.9131 38.0027L29.7993 34.6791V34.6361L41.9131 37.9564V38.0027Z" fill="#BEC9D9"/>
<path d="M41.9131 38.0424L29.7993 34.7056V34.6791L41.9131 37.9994V38.0424Z" fill="#BCC7D7"/>
<path d="M41.9131 38.0689L29.7993 34.7486V34.7056L41.9131 38.0424V38.0689Z" fill="#BCC7D7"/>
<path d="M41.9131 38.112L29.7993 34.7884V34.7487L41.9131 38.0689V38.112Z" fill="#BCC7D7"/>
<path d="M41.9131 38.1516L29.7993 34.8314V34.7883L41.9131 38.1119V38.1516Z" fill="#BAC5D5"/>
<path d="M41.9131 38.1947L29.7993 34.8745V34.8314L41.9131 38.1517V38.1947Z" fill="#B9C4D6"/>
<path d="M41.9131 38.2344L29.7993 34.9009V34.8744L41.9131 38.1947V38.2344Z" fill="#B8C4D5"/>
<path d="M41.9131 38.2675L29.7993 34.9439V34.9009L41.9131 38.2377V38.2642V38.2675Z" fill="#B7C3D5"/>
<path d="M41.9131 38.3073L29.7993 34.987V34.944L41.9131 38.2642V38.3073Z" fill="#B6C1D3"/>
<path d="M41.9131 38.3503L29.7993 35.0234V34.9836L41.9131 38.3039V38.347V38.3503Z" fill="#B4C0D2"/>
<path d="M41.9131 38.39L29.7993 35.0698V35.0267L41.9131 38.3503V38.39Z" fill="#B3C0D2"/>
<path d="M41.9131 38.433L29.7993 35.0962V35.0697L41.9131 38.39V38.433Z" fill="#B2BFD1"/>
<path d="M41.9131 38.4595L29.7993 35.1392V35.0962L41.9131 38.433V38.4595Z" fill="#B1BED1"/>
<path d="M41.9131 38.4993L29.7993 35.179V35.1393L41.9131 38.4596V38.4993Z" fill="#B0BDD0"/>
<path d="M41.9131 38.5423L29.7993 35.222V35.179L41.9131 38.5025V38.5423Z" fill="#AFBCCF"/>
<path d="M41.9131 38.5854L29.7993 35.2651V35.222L41.9131 38.5423V38.5854Z" fill="#AEBBCE"/>
<path d="M41.9131 38.6283L29.7993 35.3047V35.265L41.9131 38.5853V38.6283Z" fill="#ADBBCE"/>
<path d="M41.9131 38.6549L29.7993 35.3346V35.3081L41.9131 38.6284V38.6549Z" fill="#ACBACE"/>
<path d="M41.9131 38.6979L29.7993 35.3776V35.3346L41.9131 38.6549V38.6979Z" fill="#ABB9CD"/>
<path d="M41.9131 38.7409L29.7993 35.4173V35.3776L41.9131 38.6978V38.7409Z" fill="#AAB8CC"/>
<path d="M41.9131 38.7807L29.7993 35.4604V35.4174L41.9131 38.7409V38.7807Z" fill="#A9B7CC"/>
<path d="M41.9131 38.8236L29.7993 35.5034V35.4603L41.9131 38.7806V38.8236Z" fill="#A9B6CB"/>
<path d="M41.9131 38.8634L29.7993 35.5299V35.5034L41.9131 38.8237V38.8634Z" fill="#A8B7CB"/>
<path d="M41.9131 38.8932L29.7993 35.5729V35.5299L41.9131 38.8634V38.8932Z" fill="#A7B6CA"/>
<path d="M41.9131 38.9329L29.7993 35.6126V35.5729L41.9131 38.8931V38.9329Z" fill="#A5B4C9"/>
<path d="M41.9131 38.976L29.7993 35.6557V35.6127L41.9131 38.9363V38.976Z" fill="#A4B3C9"/>
<path d="M41.9131 39.0189L29.7993 35.6954V35.6556L41.9131 38.9759V39.0189Z" fill="#A4B2C8"/>
<path d="M41.9131 39.062L29.7993 35.7252V35.6987L41.9131 39.019V39.0587V39.062Z" fill="#A3B2C8"/>
<path d="M41.9131 39.0885L29.7993 35.7683V35.7252L41.9131 39.062V39.0885Z" fill="#A2B2C7"/>
<path d="M41.9131 39.1282L29.7993 35.8079V35.7682L41.9131 39.0885V39.1282Z" fill="#A1B1C7"/>
<path d="M41.9131 39.1713L29.7993 35.851V35.808L41.9131 39.1283V39.1713Z" fill="#A0B0C6"/>
<path d="M41.9131 39.2143L29.7993 35.8907V35.851L41.9131 39.1712V39.2143Z" fill="#9EAEC4"/>
<path d="M41.9131 39.2539L29.7993 35.9204V35.8906L41.9131 39.2142V39.2539Z" fill="#9DADC5"/>
<path d="M41.9131 39.2838L29.7993 35.9636V35.9205L41.9131 39.254V39.2838Z" fill="#9CABC3"/>
<path d="M41.9131 39.3268L29.7993 36.0032V35.9635L41.9131 39.2838V39.3268Z" fill="#9BACC3"/>
<path d="M41.9131 39.3666L29.7993 36.0496V36.0066L41.9131 39.3302V39.3666Z" fill="#99ABC3"/>
<path d="M41.9131 39.4096L29.7993 36.0893V36.0463L41.9131 39.3665V39.4096Z" fill="#98AAC2"/>
<path d="M41.9131 39.4527L29.7993 36.1158V36.0894L41.9131 39.4096V39.4527Z" fill="#97A9C2"/>
<path d="M41.9131 39.479L29.7993 36.1588V36.1157L41.9131 39.4526V39.479Z" fill="#97A8C1"/>
<path d="M41.9131 39.5221L29.7993 36.1985V36.1588L41.9131 39.4791V39.5221Z" fill="#96A7C1"/>
<path d="M41.9131 39.5618L29.7993 36.2415V36.1985L41.9131 39.5221V39.5618Z" fill="#95A6C0"/>
<path d="M41.8271 39.5751L29.8027 36.2846V36.2416L41.9132 39.5619V39.5751H41.8271Z" fill="#94A6BF"/>
<path d="M41.6846 39.5751L29.7993 36.3244V36.2847L41.827 39.5751H41.6846Z" fill="#93A5BF"/>
<path d="M41.5421 39.5751L29.7993 36.3541V36.3243L41.6846 39.5751H41.5421Z" fill="#92A4BE"/>
<path d="M41.3997 39.5751L29.7993 36.3972V36.3541L41.5421 39.5751H41.3997Z" fill="#91A4BF"/>
<path d="M41.2573 39.575L29.7993 36.4368V36.3938L41.3997 39.575H41.2573Z" fill="#90A2BD"/>
<path d="M41.1148 39.5751L29.7993 36.4799V36.4369L41.2606 39.5751H41.1148Z" fill="#8FA1BC"/>
<path d="M40.9724 39.5752L29.7993 36.5197V36.48L41.1148 39.5752H40.9724Z" fill="#8EA2BD"/>
<path d="M40.8299 39.5751L29.7993 36.5494V36.5197L40.9724 39.5751H40.8299Z" fill="#8DA0BB"/>
<path d="M40.6875 39.5751L29.7993 36.5892V36.5494L40.8299 39.5751H40.6875Z" fill="#8C9FBC"/>
<path d="M40.5451 39.575L29.7993 36.6288V36.5891L40.6875 39.575H40.5451Z" fill="#8B9EBB"/>
<path d="M40.4027 39.5751L29.8027 36.6752V36.6322L40.5452 39.5784H40.4027V39.5751Z" fill="#8A9DBA"/>
<path d="M40.2602 39.5752L29.7993 36.715V36.6753L40.4026 39.5752H40.2602Z" fill="#899DBA"/>
<path d="M40.1145 39.5751L29.8027 36.7448V36.715L40.2636 39.5751H40.1212H40.1145Z" fill="#889DB9"/>
<path d="M39.9753 39.5751L29.7993 36.7845V36.7448L40.1178 39.5751H39.9753Z" fill="#879CB9"/>
<path d="M39.8329 39.575L29.7993 36.8275V36.7844L39.9753 39.575H39.8329Z" fill="#869BB9"/>
<path d="M39.6904 39.5751L29.7993 36.8705V36.8275L39.8329 39.5751H39.6904Z" fill="#859AB7"/>
<path d="M39.548 39.575L29.7993 36.9102V36.8705L39.6904 39.575H39.548Z" fill="#8599B7"/>
<path d="M39.4056 39.5751L29.7993 36.9401V36.9103L39.548 39.5751H39.4056Z" fill="#8398B6"/>
<path d="M39.2631 39.5751L29.7993 36.9798V36.9401L39.4056 39.5751H39.2631Z" fill="#8298B6"/>
<path d="M39.1207 39.575L29.7993 37.0228V36.9797L39.2631 39.575H39.1207Z" fill="#8196B4"/>
<path d="M38.9784 39.5751L29.8027 37.0659V37.0228L39.1208 39.5751H38.9784Z" fill="#7F95B3"/>
<path d="M38.8358 39.575L29.7993 37.1055V37.0658L38.9749 39.575H38.8358Z" fill="#7E94B3"/>
<path d="M38.6901 39.5751L29.7993 37.1354V37.1056L38.8358 39.5751H38.6901Z" fill="#7E93B2"/>
<path d="M38.5509 39.5751L29.7993 37.1751V37.1354L38.6934 39.5751H38.5509Z" fill="#7E93B2"/>
<path d="M38.4085 39.5751L29.7993 37.2181V37.175L38.5509 39.5751H38.4085Z" fill="#7C92B1"/>
<path d="M38.2661 39.5751L29.7993 37.2579V37.2181L38.4085 39.5751H38.2661Z" fill="#7B91B0"/>
<path d="M38.1071 39.575L29.7993 37.3008V37.2611L38.2661 39.5784H38.1071V39.575Z" fill="#7A90B0"/>
<path d="M37.9646 39.5751L29.7993 37.3307V37.3009L38.1071 39.5751H37.9646Z" fill="#798FAF"/>
<path d="M37.8222 39.5751L29.7993 37.3704V37.3307L37.9646 39.5751H37.8222Z" fill="#788FAF"/>
<path d="M37.6798 39.5751L29.7993 37.4134V37.3704L37.8222 39.5751H37.6798Z" fill="#778EAE"/>
<path d="M37.5373 39.5751L29.7993 37.4565V37.4135L37.6831 39.5751H37.5373Z" fill="#768DAD"/>
<path d="M37.3982 39.575L29.7993 37.4961V37.4564L37.5373 39.575H37.3949H37.3982Z" fill="#758DAE"/>
<path d="M37.2524 39.5751L29.7993 37.5393V37.4962L37.3949 39.5751H37.2524Z" fill="#748CAD"/>
<path d="M37.11 39.575L29.7993 37.5657V37.5392L37.2524 39.575H37.11Z" fill="#738AAD"/>
<path d="M36.9676 39.5751L29.7993 37.6087V37.5657L37.11 39.5751H36.9676Z" fill="#7189AC"/>
<path d="M36.8252 39.5751L29.8027 37.6518V37.6088L36.9677 39.5751H36.8252Z" fill="#7088AC"/>
<path d="M36.6827 39.575L29.7993 37.6915V37.6517L36.8251 39.575H36.6827Z" fill="#7089AA"/>
<path d="M36.5403 39.5751L29.7993 37.7379V37.6948L36.6827 39.5817H36.5403V39.5751Z" fill="#6F88AA"/>
<path d="M36.3978 39.575L29.7993 37.761V37.7378L36.5403 39.5783H36.3978V39.575Z" fill="#6F87AA"/>
<path d="M36.2554 39.5751L29.7993 37.804V37.761L36.3978 39.5751H36.2554Z" fill="#6C85A8"/>
<path d="M36.1129 39.5751L29.7993 37.8471V37.8041L36.2554 39.5751H36.1129Z" fill="#6C85A9"/>
<path d="M35.9705 39.575L29.7993 37.8868V37.847L36.1129 39.575H35.9705Z" fill="#6A84A7"/>
<path d="M35.8281 39.5751L29.7993 37.9299V37.8868L35.9705 39.5751H35.8281Z" fill="#6A84A7"/>
<path d="M35.6856 39.5751L29.7993 37.9563V37.9298L35.8281 39.5751H35.6856Z" fill="#6A83A6"/>
<path d="M35.5432 39.5751L29.7993 37.9993V37.9563L35.6856 39.5784H35.5432V39.5751Z" fill="#6882A5"/>
<path d="M35.4009 39.5751L29.8027 38.0424V37.9994L35.5433 39.5751H35.4009Z" fill="#6781A6"/>
<path d="M35.2583 39.575L29.7993 38.0854V38.0424L35.3974 39.575H35.2583Z" fill="#6680A5"/>
<path d="M35.1126 39.5751L29.7993 38.1252V38.0822L35.2583 39.5751H35.1126Z" fill="#657EA3"/>
<path d="M34.9734 39.5751L29.7993 38.1516V38.1251L35.1159 39.5751H34.9734Z" fill="#647FA4"/>
<path d="M34.831 39.5751L29.7993 38.1946V38.1516L34.9734 39.5751H34.831Z" fill="#637EA3"/>
<path d="M34.6886 39.5751L29.7993 38.2377V38.1947L34.831 39.5751H34.6886Z" fill="#637DA2"/>
<path d="M34.5461 39.5751L29.7993 38.2774V38.2377L34.6886 39.5751H34.5461Z" fill="#627CA2"/>
<path d="M34.4037 39.5751L29.7993 38.3205V38.2775L34.5461 39.5751H34.4037Z" fill="#617BA1"/>
<path d="M34.2613 39.5751L29.7993 38.3502V38.3204L34.4037 39.5784H34.2613V39.5751Z" fill="#5F7AA1"/>
<path d="M34.1188 39.575L29.7993 38.3899V38.3502L34.2613 39.575H34.1188Z" fill="#5E7AA0"/>
<path d="M33.9765 39.5751L29.8027 38.433V38.39L34.1189 39.5751H33.9765Z" fill="#5D79A0"/>
<path d="M33.8339 39.5751L29.7993 38.4727V38.433L33.9731 39.5751H33.8339Z" fill="#5C789F"/>
<path d="M33.6882 39.5751L29.7993 38.5158V38.4728L33.8339 39.5751H33.6882Z" fill="#5B769E"/>
<path d="M33.5491 39.5751L29.7993 38.5588V38.5157L33.6915 39.5751H33.5491Z" fill="#5A769E"/>
<path d="M33.4066 39.5751L29.7993 38.5853V38.5588L33.5491 39.5751H33.4066Z" fill="#5A759D"/>
<path d="M33.2609 39.5751L29.7993 38.6284V38.5853L33.4066 39.5784H33.2609V39.5751Z" fill="#58759E"/>
<path d="M33.1218 39.5751L29.7993 38.668V38.6283L33.2609 39.5751H33.1251H33.1218Z" fill="#57749C"/>
<path d="M32.976 39.5751L29.7993 38.7144V38.6681L33.1218 39.5751H32.976Z" fill="#56739B"/>
<path d="M32.8336 39.5751L29.7993 38.7541V38.7111L32.9793 39.5751H32.8336Z" fill="#55729B"/>
<path d="M32.6944 39.5751L29.7993 38.7806V38.7542L32.8336 39.5751H32.6944Z" fill="#55719A"/>
<path d="M32.5487 39.5751L29.7993 38.8237V38.7806L32.6911 39.5751H32.5487Z" fill="#53709A"/>
<path d="M32.4063 39.5751L29.7993 38.8633V38.8236L32.5487 39.5751H32.4063Z" fill="#537099"/>
<path d="M32.2638 39.5751L29.7993 38.9064V38.8634L32.4063 39.5751H32.2638Z" fill="#506F98"/>
<path d="M32.1215 39.5751L29.8027 38.9461V38.9064L32.2639 39.5751H32.1215Z" fill="#506E98"/>
<path d="M31.9789 39.5751L29.7993 38.9793V38.9462L32.1214 39.5751H31.9789Z" fill="#4F6D97"/>
<path d="M31.8365 39.5751L29.7993 39.019V38.976L31.9789 39.5751H31.8365Z" fill="#4E6C97"/>
<path d="M31.6941 39.5751L29.7993 39.062V39.0189L31.8365 39.5751H31.6941Z" fill="#4E6B96"/>
<path d="M31.5516 39.5751L29.7993 39.1017V39.062L31.6941 39.5751H31.5516Z" fill="#4C6B95"/>
<path d="M31.4092 39.5751L29.7993 39.1447V39.1017L31.5549 39.5751H31.4092Z" fill="#4B6A95"/>
<path d="M31.2701 39.5751L29.7993 39.1713V39.1448L31.4092 39.5751H31.2701Z" fill="#4B6995"/>
<path d="M31.1243 39.5751L29.7993 39.211V39.1713L31.2668 39.5751H31.1243Z" fill="#496894"/>
<path d="M30.9819 39.5751L29.7993 39.254V39.2142L31.1243 39.5784H30.9819V39.5751Z" fill="#486793"/>
<path d="M30.8262 39.5751L29.7993 39.2971V39.254L30.9819 39.5751H30.8262Z" fill="#476694"/>
<path d="M30.6838 39.5751L29.7993 39.34V39.297L30.8262 39.5751H30.6838Z" fill="#466692"/>
<path d="M30.5413 39.5751L29.7993 39.3666V39.3401L30.6838 39.5751H30.5413Z" fill="#456592"/>
<path d="M30.399 39.5751L29.8027 39.4096V39.3666L30.5414 39.5751H30.399Z" fill="#446491"/>
<path d="M30.2564 39.5817L29.7993 39.4493V39.4095L30.3956 39.5817H30.2564Z" fill="#436391"/>
<path d="M30.1107 39.5784L29.7993 39.4924V39.4526L30.2564 39.5784H30.1107Z" fill="#426290"/>
<path d="M29.9716 39.5784L29.7993 39.5353V39.4923L30.114 39.5784H29.9716Z" fill="#41618F"/>
<path d="M29.8291 39.5784H29.7993V39.5354L29.9749 39.5784H29.8291Z" fill="#40618E"/>
</g>
</g>
<path d="M129.356 52.7338V56.6566C128.421 56.488 127.471 56.4137 126.521 56.4348C120.737 56.4348 116.388 61.248 116.388 66.6373V82.517H112.042V53.5846H115.235L116.103 59.434H116.388C117.898 55.4152 121.377 52.4558 126.524 52.4558C127.733 52.4558 128.489 52.565 129.356 52.7338ZM161.806 69.3551H136.723C136.723 75.3137 141.997 79.6834 149.178 79.6834C153.243 79.6834 157.347 78.3857 160.54 75.9989H160.597V80.0872C157.533 82.474 153.64 83.6624 149.178 83.6624C138.863 83.6624 132.265 77.5349 132.265 68.0607C132.265 58.5832 138.35 52.4558 146.913 52.4558C155.479 52.4558 161.806 58.8613 161.806 68.0574V69.3716V69.3551ZM136.896 65.3827H157.234C156.476 60.106 152.6 56.4216 146.913 56.4216C141.228 56.4216 137.707 59.9405 136.896 65.3827ZM176.271 56.4216C171.809 56.4216 170.074 57.9543 170.074 59.712C170.074 60.7316 170.299 62.2676 175.688 65.2668C179.978 67.4847 186.003 69.9145 186.003 76.042C186.003 80.981 181.545 83.6458 175.93 83.6458C172.28 83.6458 167.235 82.3879 164.986 80.981V76.8927L165.042 76.8365C167.179 78.3162 172.396 79.6701 175.93 79.6701C178.938 79.6701 181.661 78.538 181.661 76.042C181.661 72.7482 177.669 71.1162 174.933 69.6927C168.904 66.581 165.724 63.9129 165.724 59.712C165.724 55.1239 170.186 52.4558 176.271 52.4558C179.219 52.4558 183.625 53.3628 185.536 54.3261V58.3052L185.477 58.3614C183.397 57.3981 178.994 56.4348 176.271 56.4348V56.4216ZM200.198 57.5504V78.538H209.463V82.517H200.198C197.418 82.517 195.852 80.981 195.852 78.2599V57.5504H189.482V53.5879H189.896C190.823 53.5879 191.804 53.4754 192.559 53.1245C195.169 51.9427 195.865 49.9465 195.865 45.4114V41.6707H200.214V44.9645C200.214 49.162 198.531 52.1645 195.295 53.3065V53.5879H209.489V57.5504H200.198ZM270.87 53.5879L260.038 82.517H253.029L241.67 56.4216L231.938 82.517H224.925L212.354 53.5846H217.045L228.403 79.6834L238.136 53.5879H245.148L256.507 79.6834L266.239 53.5879H270.87ZM273.752 68.0442C273.752 58.9176 279.78 52.4425 288.231 52.4425C296.681 52.4425 302.709 58.9043 302.709 68.0442C302.709 77.1874 296.681 83.6458 288.231 83.6458C279.78 83.6458 273.752 77.1874 273.752 68.0442ZM298.377 68.0442C298.377 61.2911 294.087 56.4216 288.244 56.4216C282.401 56.4216 278.111 61.2878 278.111 68.0442C278.111 74.7973 282.401 79.6701 288.247 79.6701C294.087 79.6701 298.377 74.8006 298.377 68.0442ZM325.539 52.7338V56.6566C324.604 56.488 323.654 56.4137 322.704 56.4348C316.917 56.4348 312.567 61.248 312.567 66.6373V82.517H308.228V53.5846H311.418L312.289 59.434H312.574C314.085 55.4152 317.559 52.4558 322.707 52.4558C323.916 52.4558 324.671 52.5683 325.543 52.7372L325.539 52.7338ZM334.801 41.6707V82.517H330.455V41.6674H334.801V41.6707ZM371 41.6707V82.517H367.807L366.939 75.9989H366.654C364.388 80.6996 360.055 83.6624 354.782 83.6624C346.203 83.6624 340.303 77.2536 340.303 68.0607C340.303 58.8613 346.216 52.4558 354.782 52.4558C359.996 52.4558 364.345 55.3457 366.654 60.0629V41.6839H371V41.6707ZM366.081 68.0442C366.081 61.4566 361.394 56.4216 355.365 56.4216C349.336 56.4216 344.649 61.4732 344.649 68.0442C344.649 74.6185 349.28 79.6701 355.365 79.6701C361.45 79.6701 366.081 74.6185 366.081 68.0442Z" fill="#4A2983"/>
</svg>
